<?xml version="1.0" standalone="no"?>
<!DOCTYPE svg PUBLIC "-//W3C//DTD SVG 20010904//EN"
 "http://www.w3.org/TR/2001/REC-SVG-20010904/DTD/svg10.dtd">
<svg version="1.0" xmlns="http://www.w3.org/2000/svg"
 width="298.000000pt" height="298.000000pt" viewBox="0 0 298.000000 298.000000"
 preserveAspectRatio="xMidYMid meet">

<g transform="translate(0.000000,298.000000) scale(0.100000,-0.100000)"
fill="#000000" stroke="none">
<path d="M790 2970 c-368 -51 -661 -313 -762 -680 l-23 -85 0 -710 c0 -703 0
-711 22 -798 85 -331 334 -582 665 -669 81 -21 102 -22 743 -25 447 -3 687 -1
744 7 380 50 679 316 774 687 22 87 22 95 22 793 l0 705 -24 90 c-87 334 -332
579 -663 667 -81 21 -98 22 -763 24 -374 1 -705 -2 -735 -6z m574 -429 c15
-17 17 -48 14 -327 l-3 -309 -29 -60 c-41 -82 -128 -167 -213 -208 l-68 -32
-293 -3 c-315 -3 -331 -1 -347 48 -11 34 17 63 116 120 264 153 484 366 643
625 95 156 103 165 134 165 16 0 37 -8 46 -19z m342 2 c9 -10 38 -55 64 -101
161 -276 394 -509 667 -668 54 -31 104 -64 111 -72 18 -23 15 -59 -9 -83 -19
-19 -29 -20 -322 -17 l-302 3 -67 33 c-87 43 -167 122 -209 208 l-34 69 -3
298 c-2 258 -1 303 13 323 19 29 67 32 91 7z m-168 -816 c34 -60 144 -167 202
-197 22 -11 40 -25 40 -30 0 -5 -30 -29 -67 -53 -80 -52 -127 -100 -177 -179
-20 -32 -41 -58 -45 -58 -5 0 -23 24 -39 53 -45 78 -94 130 -172 182 -39 26
-70 50 -70 55 0 4 21 21 48 36 67 39 147 118 189 186 20 32 42 58 48 58 7 0
26 -24 43 -53z m-431 -364 c112 -45 213 -146 254 -252 17 -46 19 -79 19 -349
0 -163 -4 -302 -8 -308 -4 -6 -17 -16 -29 -23 -34 -17 -67 4 -99 63 -158 294
-424 566 -711 727 -54 31 -100 64 -106 77 -13 28 4 69 35 82 13 5 146 8 308 7
264 -2 289 -4 337 -24z m1427 6 c32 -25 34 -63 4 -90 -13 -12 -60 -43 -106
-69 -141 -83 -242 -161 -362 -280 -130 -129 -213 -236 -303 -388 -68 -117 -93
-136 -136 -104 l-26 19 0 309 0 309 26 55 c52 111 185 223 295 249 22 5 161 9
310 10 260 1 272 0 298 -20z"/>
</g>
</svg>
