<?xml version="1.0" standalone="no"?>
<!DOCTYPE svg PUBLIC "-//W3C//DTD SVG 20010904//EN"
 "http://www.w3.org/TR/2001/REC-SVG-20010904/DTD/svg10.dtd">
<svg version="1.0" xmlns="http://www.w3.org/2000/svg"
 width="200.000000pt" height="200.000000pt" viewBox="0 0 200.000000 200.000000"
 preserveAspectRatio="xMidYMid meet">

<g transform="translate(0.000000,200.000000) scale(0.100000,-0.100000)"
fill="#000000" stroke="none">
<path d="M210 1701 l0 -141 74 0 c94 0 126 21 126 81 0 32 -4 41 -25 51 -25
11 -25 11 -5 30 11 10 20 31 20 47 0 45 -30 63 -115 69 l-75 5 0 -142z m114
83 c23 -9 20 -41 -5 -54 -31 -17 -46 -6 -41 29 4 31 15 37 46 25z m14 -113 c8
-4 12 -19 10 -32 -2 -19 -10 -25 -35 -27 -32 -3 -33 -2 -33 32 0 31 3 36 23
36 12 0 28 -4 35 -9z"/>
<path d="M920 1695 l0 -135 90 0 c89 0 90 0 90 25 0 24 -3 25 -60 25 l-60 0 0
110 0 110 -30 0 -30 0 0 -135z"/>
<path d="M1617 1712 c-20 -66 -39 -127 -43 -136 -5 -13 1 -16 29 -16 30 0 35
4 41 30 5 28 9 30 50 30 40 0 44 -2 50 -30 5 -25 10 -30 36 -30 17 0 30 5 30
13 0 6 -17 66 -38 132 l-38 120 -40 3 -40 3 -37 -119z m103 -34 c0 -5 -11 -8
-25 -8 -29 0 -31 14 -13 75 l11 40 13 -50 c8 -27 14 -53 14 -57z"/>
<path d="M1390 995 l0 -305 303 2 302 3 3 303 2 302 -305 0 -305 0 0 -305z
m386 123 c10 -10 10 -17 -1 -31 -11 -15 -17 -17 -35 -7 -28 15 -74 9 -78 -11
-2 -12 14 -23 53 -39 61 -25 85 -51 85 -90 -1 -68 -103 -105 -180 -65 -34 18
-36 22 -14 46 14 15 18 16 42 3 34 -17 66 -18 80 -1 16 19 3 32 -56 57 -29 13
-57 31 -62 41 -15 27 -12 65 8 89 31 38 124 43 158 8z"/>
<path d="M302 1139 c-110 -23 -139 -185 -46 -258 34 -27 109 -28 142 -3 23 18
23 18 4 36 -17 14 -24 15 -40 5 -55 -35 -115 38 -93 113 14 45 41 62 86 54 35
-7 67 16 48 35 -16 16 -67 26 -101 18z"/>
<path d="M900 1000 l0 -140 30 0 c28 0 30 3 30 36 0 20 8 46 18 59 l19 24 28
-60 c27 -54 31 -59 62 -59 18 0 33 2 33 5 0 3 -18 39 -40 79 -22 40 -40 77
-40 83 0 6 16 31 35 56 19 25 35 48 35 51 0 3 -15 6 -32 6 -29 0 -38 -8 -73
-58 l-40 -57 -3 58 c-3 56 -4 57 -32 57 l-30 0 0 -140z"/>
<path d="M184 403 c3 -27 12 -90 18 -140 l11 -93 33 0 c27 0 35 5 38 23 3 12
9 40 14 62 l9 40 7 -45 c13 -77 14 -80 52 -80 21 0 34 5 34 13 0 7 7 67 15
132 8 66 15 123 15 128 0 4 -13 7 -29 7 l-28 0 -8 -102 -8 -103 -14 63 c-13
55 -17 63 -36 60 -17 -2 -24 -16 -38 -68 l-17 -65 -1 70 c-1 39 -4 87 -7 108
-6 33 -10 37 -37 37 l-30 0 7 -47z"/>
<path d="M956 433 c-2 -10 -21 -70 -40 -134 -20 -63 -36 -118 -36 -122 0 -4
14 -7 30 -7 26 0 31 5 37 30 5 28 9 30 50 30 40 0 44 -2 50 -30 5 -26 10 -30
39 -30 40 0 41 -9 -15 163 l-36 112 -37 3 c-28 2 -37 -1 -42 -15z m59 -102
l13 -51 -30 0 c-28 0 -30 2 -24 26 4 15 10 39 13 56 7 36 11 32 28 -31z"/>
<path d="M1597 443 c-4 -3 -7 -66 -7 -140 l0 -133 30 0 29 0 3 86 3 86 35 -83
c33 -79 38 -84 68 -87 l32 -3 0 141 0 141 -27 -3 -28 -3 1 -95 2 -95 -40 98
c-37 89 -43 97 -68 97 -15 0 -30 -3 -33 -7z"/>
</g>
</svg>
