<?xml version="1.0" standalone="no"?>
<!DOCTYPE svg PUBLIC "-//W3C//DTD SVG 20010904//EN"
 "http://www.w3.org/TR/2001/REC-SVG-20010904/DTD/svg10.dtd">
<svg version="1.0" xmlns="http://www.w3.org/2000/svg"
 width="250.000000pt" height="75.000000pt" viewBox="0 0 250.000000 75.000000"
 preserveAspectRatio="xMidYMid meet">

<g transform="translate(0.000000,75.000000) scale(0.100000,-0.100000)"
fill="#000000" stroke="none">
<path d="M665 737 c-59 -20 -88 -42 -113 -86 -21 -37 -22 -50 -22 -276 0 -236
0 -239 25 -281 38 -64 96 -89 210 -89 111 0 171 25 213 88 l27 41 0 241 0 241
-28 43 c-38 57 -98 83 -197 88 -44 2 -92 -3 -115 -10z m168 -118 c15 -19 17
-46 17 -241 0 -135 -4 -227 -11 -239 -14 -27 -57 -42 -97 -34 -55 10 -62 42
-62 275 0 254 8 275 100 265 20 -3 43 -14 53 -26z"/>
<path d="M0 375 l0 -367 178 4 c193 3 221 11 264 69 25 33 36 169 19 222 -13
38 -56 77 -85 77 -11 0 -4 13 24 38 l40 39 0 89 c0 71 -4 96 -20 121 -36 59
-66 67 -252 71 l-168 4 0 -367z m272 248 c14 -13 18 -31 18 -89 0 -64 -3 -75
-22 -88 -12 -9 -42 -16 -65 -16 l-43 0 0 105 0 105 47 0 c29 0 53 -6 65 -17z
m24 -308 c9 -12 14 -46 14 -92 0 -95 -15 -113 -95 -113 l-55 0 0 116 0 116 61
-4 c45 -3 65 -10 75 -23z"/>
<path d="M1087 378 l3 -363 25 -3 25 -3 2 317 3 317 85 -317 c77 -286 87 -316
104 -314 17 3 32 47 106 321 l85 318 3 -321 2 -320 30 0 30 0 0 365 0 365 -45
0 c-41 0 -45 -2 -53 -32 -5 -18 -42 -155 -82 -305 -41 -150 -75 -271 -77 -270
-3 3 -163 596 -163 603 0 2 -19 4 -42 4 l-43 0 2 -362z"/>
<path d="M1807 678 c-19 -35 -62 -117 -96 -184 l-61 -121 0 -181 0 -182 25 0
25 0 0 176 0 176 78 154 c64 128 80 154 97 152 26 -4 166 -274 169 -327 2 -20
3 -102 4 -183 l2 -148 25 0 25 0 0 183 0 182 -94 180 c-92 178 -94 180 -128
183 -34 3 -37 1 -71 -60z"/>
<path d="M2160 375 l0 -365 170 0 c144 0 170 2 170 15 0 13 -22 15 -140 15
l-140 0 0 160 0 160 100 0 c93 0 100 1 100 20 0 19 -7 20 -100 20 l-101 0 3
153 3 152 138 3 c113 2 137 5 137 17 0 13 -27 15 -170 15 l-170 0 0 -365z"/>
<path d="M1830 85 l0 -75 45 0 45 0 0 75 0 75 -45 0 -45 0 0 -75z"/>
</g>
</svg>
