<?xml version="1.0" encoding="UTF-8"?>
<svg xmlns="http://www.w3.org/2000/svg" width="360" height="360" viewBox="0 0 360 360">
  <path d="M174.625 133.625 C172.51293494 136.71186432 172.38804855 138.3282913 173 142 C174.5 144.5 174.5 144.5 177 146 C180.6717087 146.61195145 182.28813568 146.48706506 185.375 144.375 C187.48706506 141.28813568 187.61195145 139.6717087 187 136 C185.5 133.5 185.5 133.5 183 132 C179.3282913 131.38804855 177.71186432 131.51293494 174.625 133.625 Z M138.5 137.1875 C136.78141407 139.85503933 136.78141407 139.85503933 137.0625 142.625 C138.36058173 145.91347372 139.67845082 147.38327705 142.875 148.875 C145.94607567 149.05565151 147.53692932 147.73080642 150 146 C151.31189416 144.90201339 151.31189416 144.90201339 151.25 142.1875 C151.18370396 139.05411287 151.18370396 139.05411287 149.9375 136.625 C147.97112293 134.69500062 147.97112293 134.69500062 144.5625 134.4375 C140.90549983 134.69051831 140.90549983 134.69051831 138.5 137.1875 Z M210.0625 136.625 C208.704546 139.66042658 208.57969557 141.70761528 209 145 C210.57172691 147.3989516 211.71800513 147.90600171 214.4375 148.8125 C217.40726587 149.02979994 218.59958437 148.73823201 221 147 C222.73823201 144.59958437 223.02979994 143.40726587 222.8125 140.4375 C221.89388592 137.68165777 221.459636 136.55776947 219 135 C214.14724079 134.33914827 214.14724079 134.33914827 210.0625 136.625 Z M104.5 145.125 C102.65654016 147.94603638 102.65654016 147.94603638 103.5625 151.1875 C104.8354729 154.24307478 104.8354729 154.24307478 108 156 C111.04638827 156.07575878 111.04638827 156.07575878 114 155 C116.15254366 152.85701707 116.15254366 152.85701707 117 150 C116.18795587 146.82564566 115.31819425 145.31819425 113 143 C109.04183828 142.39767104 107.59288591 142.49604697 104.5 145.125 Z M245.1875 144.25 C243.78795 146.31249474 243.14735516 147.49496229 243 150 C243.93803782 152.7859011 243.93803782 152.7859011 246 155 C249.37898812 156.15029383 251.07480204 156.45009631 254.3125 154.875 C256.46243134 152.4861874 257 151.22337198 257 148 C255.5714939 145.0684887 255.5714939 145.0684887 253 143 C249.73310717 142.46662974 247.94718315 142.34677024 245.1875 144.25 Z M176 149 C175.80664062 149.80824219 175.61328125 150.61648437 175.4140625 151.44921875 C175.15367187 152.51785156 174.89328125 153.58648437 174.625 154.6875 C174.24214844 156.27111328 174.24214844 156.27111328 173.8515625 157.88671875 C171.75242598 165.56108485 171.75242598 165.56108485 168.75 167.3125 C164.62381541 168.34404615 161.4930063 168.50980703 157.4375 167.125 C153.6465237 163.8200463 152.03779116 159.52604142 150 155 C149.3396513 153.66352635 148.67528649 152.32898848 148 151 C146.02 151.33 144.04 151.66 142 152 C141.97421875 152.78503906 141.9484375 153.57007813 141.921875 154.37890625 C141.56270754 161.03166724 140.97184335 165.58384998 137 171 C133.03031924 172.98484038 128.2997949 172.33907693 124.125 171.25 C121.5600844 169.74122612 121.21925843 168.66712781 120 166 C119.64679688 165.29359375 119.29359375 164.5871875 118.9296875 163.859375 C117.953125 161.90625 116.9765625 159.953125 116 158 C114.02 158.33 112.04 158.66 110 159 C110.05220703 160.28583984 110.05220703 160.28583984 110.10546875 161.59765625 C110.38394794 173.36008677 110.38394794 173.36008677 107 179 C103.22786948 181.51475368 101.47964158 181.44796416 97 181 C91.04129971 178.4315947 88.44981801 175.43607686 85 170 C83.35 170.66 81.7 171.32 80 172 C80.23783203 172.79083984 80.23783203 172.79083984 80.48046875 173.59765625 C81.12437073 176.57509773 81.24560064 179.39181863 81.3125 182.4375 C81.34988281 183.54996094 81.38726562 184.66242188 81.42578125 185.80859375 C80.9053143 189.70970842 79.83829838 191.30978675 77 194 C73.15639294 195.2282203 69.38469123 194.66192621 65.77734375 192.9375 C64.43417044 192.09393695 63.11323603 191.21326357 61.82421875 190.2890625 C59.95646048 188.96923331 58.06495781 187.97549883 56 187 C56 191.2892745 58.51297381 193.45928984 61.125 196.625 C65.38912783 201.90700756 69.38945365 207.24140708 73 213 C76.37997249 212.41696494 79.26522834 211.57478529 82.37890625 210.14453125 C83.62148193 209.58608521 83.62148193 209.58608521 84.88916016 209.01635742 C85.7713623 208.61908447 86.65356445 208.22181152 87.5625 207.8125 C139.80631091 184.92685637 206.98188382 182.2003827 260.41064453 202.93554688 C265.98969582 205.17879266 271.50505561 207.55899497 277 210 C277.845625 210.37495605 278.69125 210.74991211 279.5625 211.13623047 C281.70906522 212.08918804 283.85489261 213.0437664 286 214 C286.32685791 213.52691406 286.65371582 213.05382812 286.99047852 212.56640625 C299.00190081 195.23041994 299.00190081 195.23041994 305 189 C304.67 188.34 304.34 187.68 304 187 C301.21315335 188.31652358 298.81243385 189.8325946 296.3125 191.625 C291.90467966 194.43147737 288.11243545 194.70585894 283 194 C282.01 193.67 281.02 193.34 280 193 C277.94798576 187.80377039 277.87858962 183.67193727 278.375 178.0625 C278.43171875 177.37865234 278.4884375 176.69480469 278.546875 175.99023438 C278.68654534 174.32582954 278.84164465 172.66273114 279 171 C275.36642533 171.41349117 275.36642533 171.41349117 272.515625 173.5234375 C272.09796875 174.13445312 271.6803125 174.74546875 271.25 175.375 C267.90375547 179.54918132 264.32199959 181.38005381 259 182 C255.625 181.1875 255.625 181.1875 253 179 C249.44450403 172.48159073 249.67167143 166.29619042 250 159 C248.02 158.67 246.04 158.34 244 158 C243.70867187 158.59167969 243.41734375 159.18335938 243.1171875 159.79296875 C240.38727956 165.05533845 238.12002518 168.88782783 233 172 C229.91517469 172.73477138 228.27762702 172.52025826 225 172 C220.73315445 169.03175962 219.27027358 165.98984958 218.26953125 161.0703125 C217.8706263 158.00625996 217.87139389 155.08654668 218 152 C215.69 151.67 213.38 151.34 211 151 C210.79246094 151.72445312 210.58492187 152.44890625 210.37109375 153.1953125 C208.2957249 159.70797626 206.23629638 164.66493715 200 168 C196.54395809 168.62208754 194.67126444 168.22375481 191.375 167.125 C186.43447788 162.70453284 184.67772134 155.43835275 184 149 C181.36 149 178.72 149 176 149 Z M73 158 C71.97634653 161.36343284 71.55736866 163.1380337 73.1875 166.3125 C75.25695181 168.23923099 76.16983903 168.91675997 79 169 C82.18650344 167.66611484 83.63819248 166.80874622 85.0625 163.625 C85.20604746 160.83771061 85.20604746 160.83771061 83.375 158.1875 C81.21178906 155.79704336 81.21178906 155.79704336 78.4375 155.5625 C75.75194866 155.87721386 75.75194866 155.87721386 73 158 Z M276.625 158.1875 C274.75052245 160.84747321 274.75052245 160.84747321 275.125 163.6875 C275.87543882 166.14951065 275.87543882 166.14951065 278 168 C281.45786015 168.50007794 281.45786015 168.50007794 285 168 C287.16666667 166.5 287.16666667 166.5 288 164 C288.00674926 160.87319901 288.00674926 160.87319901 287 158 C282.79370926 155.19580617 280.47750563 154.63913956 276.625 158.1875 Z M46.125 176.1875 C44.59340416 178.65507108 44.57177975 180.14519831 45 183 C46.08333333 184.91666667 46.08333333 184.91666667 48 186 C50.85480169 186.42822025 52.34492892 186.40659584 54.8125 184.875 C56.52849028 182.16554166 56.333728 180.13704316 56 177 C54.12061828 174.70172688 54.12061828 174.70172688 51.0625 174.6875 C48.06545805 174.76303247 48.06545805 174.76303247 46.125 176.1875 Z M304 177 C303.666272 180.13704316 303.47150972 182.16554166 305.1875 184.875 C307.65507108 186.40659584 309.14519831 186.42822025 312 186 C313.91666667 184.91666667 313.91666667 184.91666667 315 183 C315.42822025 180.14519831 315.40659584 178.65507108 313.875 176.1875 C310.32768188 173.94086519 306.9439285 174.0560715 304 177 Z M77 218 C77.42257276 219.4835001 77.86356322 220.96176424 78.3125 222.4375 C78.55613281 223.26121094 78.79976563 224.08492187 79.05078125 224.93359375 C79.36402344 225.61550781 79.67726563 226.29742187 80 227 C83.50501496 228.16833832 84.49723075 227.77292364 87.953125 226.70703125 C88.9534375 226.40821045 89.95375 226.10938965 90.984375 225.80151367 C92.06203125 225.47513916 93.1396875 225.14876465 94.25 224.8125 C111.85799417 219.68320366 129.75746079 216.72785765 148 215 C149.15886719 214.88785156 150.31773437 214.77570313 151.51171875 214.66015625 C193.12843163 211.37581026 234.84619678 215.65343998 274.86230469 227.43676758 C276.95389128 228.08492713 276.95389128 228.08492713 279 228 C279.67154933 226.71086513 280.33708859 225.41859796 281 224.125 C281.556875 223.04605469 281.556875 223.04605469 282.125 221.9453125 C283.13673746 220.05151023 283.13673746 220.05151023 283 218 C259.11752539 204.79439639 232.08139799 197.69560211 205 195 C203.9275 194.88914063 202.855 194.77828125 201.75 194.6640625 C159.56803239 190.98308891 114.25071181 197.06430133 77 218 Z" fill="#000000"/>
</svg>
