<?xml version="1.0" standalone="no"?>
<!DOCTYPE svg PUBLIC "-//W3C//DTD SVG 20010904//EN"
 "http://www.w3.org/TR/2001/REC-SVG-20010904/DTD/svg10.dtd">
<svg version="1.0" xmlns="http://www.w3.org/2000/svg"
 width="300.000000pt" height="300.000000pt" viewBox="0 0 300.000000 300.000000"
 preserveAspectRatio="xMidYMid meet">

<g transform="translate(0.000000,300.000000) scale(0.100000,-0.100000)"
fill="#000000" stroke="none">
<path d="M1690 2360 l0 -640 648 2 647 3 3 638 2 637 -650 0 -650 0 0 -640z"/>
<path d="M510 1275 c-239 -54 -445 -262 -495 -500 -67 -321 119 -646 429 -750
102 -34 297 -36 402 -4 280 85 468 357 451 653 -15 271 -186 495 -443 582 -99
33 -246 41 -344 19z"/>
<path d="M1690 640 l0 -640 650 0 650 0 0 640 0 640 -650 0 -650 0 0 -640z"/>
</g>
</svg>
