<?xml version="1.0" standalone="no"?>
<!DOCTYPE svg PUBLIC "-//W3C//DTD SVG 20010904//EN"
 "http://www.w3.org/TR/2001/REC-SVG-20010904/DTD/svg10.dtd">
<svg version="1.0" xmlns="http://www.w3.org/2000/svg"
 width="200.000000pt" height="200.000000pt" viewBox="0 0 200.000000 200.000000"
 preserveAspectRatio="xMidYMid meet">

<g transform="translate(0.000000,200.000000) scale(0.100000,-0.100000)"
fill="#000000" stroke="none">
<path d="M366 1728 c-55 -32 -78 -79 -74 -149 5 -65 31 -109 82 -133 29 -14
80 -16 359 -16 320 0 324 0 357 23 96 64 99 203 8 269 -33 23 -35 23 -363 26
-327 2 -330 2 -369 -20z"/>
<path d="M380 1148 c-115 -58 -124 -203 -17 -282 28 -21 37 -21 628 -24 542
-2 603 -1 635 14 116 55 124 224 14 288 -34 20 -50 21 -625 24 l-590 2 -45
-22z"/>
<path d="M935 566 c-117 -53 -127 -211 -18 -286 l36 -25 301 -3 c323 -3 363 1
409 44 43 40 60 81 55 136 -5 52 -27 89 -72 122 -26 20 -42 21 -354 23 -258 2
-333 0 -357 -11z"/>
</g>
</svg>
