<svg width="60" height="60" viewBox="0 0 60 60" fill="none" xmlns="http://www.w3.org/2000/svg">
<path d="M30 0C39.2647 0 47.5477 4.20031 53.0508 10.7998H30.5996V10.8096C30.4005 10.8035 30.2005 10.7998 30 10.7998C19.3963 10.7999 10.7999 19.3963 10.7998 30C10.7999 40.6037 19.3963 49.2001 30 49.2002C34.5378 49.2001 38.7074 47.6255 41.9932 44.9932L44.585 47.585C45.8449 48.8449 47.999 47.9527 47.999 46.1709V33.7998C47.9989 32.6953 47.1035 31.7998 45.999 31.7998H33.6279C31.8464 31.8 30.9544 33.954 32.2139 35.2139L34.2471 37.2471C33.0008 37.9792 31.5499 38.4004 30 38.4004C25.3609 38.4003 21.5996 34.6391 21.5996 30C21.5997 25.361 25.361 21.5997 30 21.5996H58.8066C59.5827 24.2653 60 27.0839 60 30C60 46.5685 46.5685 60 30 60C13.4315 60 0 46.5685 0 30C0 13.4315 13.4315 0 30 0Z" fill="#00592E"/>
</svg>
