<?xml version="1.0" encoding="UTF-8"?>
<svg id="Layer_1" data-name="Layer 1" xmlns="http://www.w3.org/2000/svg" viewBox="0 0 216.93 57.26">
  <defs>
    <style>
      .cls-1 {
        fill: #0c27ed;
      }
    </style>
  </defs>
  <path class="cls-1" d="M177.11,38.9v-18.08h-6.03v-10.58h6.03V0h12.9v10.23h8.2v10.58h-8.2v13.81c0,1.96.63,3.37,3.64,3.37,1.19,0,3.37-.28,4.56-.49v10.86c-2.24.42-5.89.7-8.2.7-9.11,0-12.9-3.29-12.9-10.16"/>
  <path class="cls-1" d="M209.77,57.26c4.09,0,7.16-2.94,7.16-7.41,0-4.09-3.07-7.28-7.16-7.28s-7.16,3.19-7.16,7.28c0,4.47,3.07,7.41,7.16,7.41"/>
  <path class="cls-1" d="M129.66,11.21l-6.93,1.79c-1.53.39-2.99,1.03-4.32,1.88v-6.67h-12.86v40.02h12.86v-16.69c0-4.18,3.39-7.57,7.57-7.57h.24l3.45-12.76Z"/>
  <rect class="cls-1" x="41.94" y=".84" width="12.86" height="47.39"/>
  <polygon class="cls-1" points="0 .84 0 48.23 12.86 48.23 12.86 42.01 16.05 37.81 21.33 48.23 39.22 48.23 24.5 26.7 38.56 8.21 21.9 8.21 12.86 20.45 12.86 .84 0 .84"/>
  <path class="cls-1" d="M80.17,37.96c-4.75,0-8.6-4.09-8.6-9.13s3.85-9.13,8.6-9.13,8.6,4.09,8.6,9.13-3.85,9.13-8.6,9.13M88.77,8.21v4c-3.08-1.98-6.74-3.15-10.68-3.15-10.92,0-19.77,8.85-19.77,19.78s8.85,19.78,19.77,19.78c3.94,0,7.59-1.16,10.68-3.15v2.77h12.86V8.21h-12.86Z"/>
  <path class="cls-1" d="M141.91,25.5c.7-3.37,2.73-6.31,7.5-6.31,4.14,0,7.15,2.24,7.5,6.31h-15ZM170.44,31.6c0-14.51-8.27-22.78-20.75-22.78s-21.03,8.06-21.03,20.05,8.62,19.98,21.45,19.98c9.25,0,13.88-4.21,16.68-7.71,0,0,1.24-1.71,1.75-2.93.52-1.24.69-1.2.19-1.3-.5-.1-11.47-1.73-11.47-1.73-1.47,1.89-3.79,3.08-7.15,3.08s-6.73-1.26-7.99-5.54h28.32v-1.12Z"/>
</svg>