<svg xmlns="http://www.w3.org/2000/svg" viewBox="0 0 200 200" width="200" height="200">
  <path fill="#ffffff" d="M 181.61 126 C 181.45 130.8 181.27 126.59 181 126.77 C 180.73 126.96 181.5 127.09 180 127.12 C 178.5 127.14 174.17 126.87 172 126.92 C 169.83 126.97 168.06 127.4 167 127.42 C 165.94 127.43 165.95 127.24 165.65 127 C 165.34 126.76 165.28 127.17 165.16 126 C 165.04 124.83 164.94 125.33 164.91 120 C 164.88 114.67 165.09 99.33 165 94 C 164.91 88.67 164.64 89.17 164.4 88 C 164.15 86.83 164.09 87.32 163.52 87 C 162.96 86.68 161.79 86.06 161 86.06 C 160.21 86.06 159.35 86.51 158.79 87 C 158.24 87.49 157.9 85.17 157.65 89 C 157.39 92.83 157.62 105.5 157.28 110 C 156.93 114.5 156.26 114.33 155.59 116 C 154.91 117.67 153.97 118.97 153.21 120 C 152.45 121.03 151.87 121.46 151 122.15 C 150.13 122.85 149.33 123.48 148 124.15 C 146.67 124.83 144.33 125.74 143 126.18 C 141.67 126.62 141.17 126.63 140 126.79 C 138.83 126.96 137.17 127.18 136 127.19 C 134.83 127.2 134.33 127.11 133 126.84 C 131.67 126.56 129.5 126.12 128 125.54 C 126.5 124.95 125.17 124.13 124 123.32 C 122.83 122.5 121.73 121.37 121 120.65 C 120.27 119.93 120.22 119.94 119.65 119 C 119.07 118.06 118.07 116.5 117.53 115 C 117 113.5 116.67 114.33 116.43 110 C 116.2 105.67 116.37 92.83 116.13 89 C 115.9 85.17 115.52 87.5 115 87 C 114.48 86.5 113.54 86.17 113.04 86 C 112.54 85.83 112.51 85.82 112 85.96 C 111.49 86.11 110.54 86.36 110 86.87 C 109.46 87.38 109.02 82.98 108.78 89 C 108.55 95.02 108.66 116.83 108.59 123 C 108.52 129.17 108.61 125.32 108.35 126 C 108.08 126.68 107.72 126.85 107 127.06 C 106.28 127.28 105.17 127.3 104 127.3 C 102.83 127.3 101.67 127.04 100 127.05 C 98.33 127.05 95.33 127.33 94 127.33 C 92.67 127.32 92.56 127.25 92 127.03 C 91.44 126.81 90.92 127.01 90.64 126 C 90.36 124.99 90.35 127 90.31 121 C 90.26 115 90.42 95.5 90.37 90 C 90.32 84.5 90.22 88.5 90.01 88 C 89.81 87.5 89.66 87.3 89.16 87 C 88.65 86.7 87.69 86.28 87 86.21 C 86.31 86.15 85.56 86.31 85 86.61 C 84.44 86.91 83.89 87.6 83.61 88 C 83.34 88.4 83.57 85.17 83.36 89 C 83.15 92.83 82.83 106.33 82.35 111 C 81.86 115.67 81.09 115.5 80.45 117 C 79.81 118.5 79.74 118.76 78.5 120 C 77.26 121.24 74.75 123.34 73 124.42 C 71.25 125.49 69.67 125.98 68 126.44 C 66.33 126.9 65 127.2 63 127.19 C 61 127.18 58 126.85 56 126.37 C 54 125.89 52.33 124.98 51 124.31 C 49.67 123.64 48.88 123.07 48 122.35 C 47.12 121.64 46.41 120.89 45.71 120 C 45.02 119.11 44.39 118.17 43.83 117 C 43.28 115.83 42.72 114.5 42.38 113 C 42.05 111.5 41.89 111.83 41.81 108 C 41.73 104.17 42.04 93.44 41.91 90 C 41.77 86.56 41.48 87.98 41 87.39 C 40.52 86.79 39.8 86.5 39 86.43 C 38.2 86.37 36.91 86.57 36.19 87 C 35.46 87.43 34.99 85 34.64 89 C 34.29 93 34.16 105.67 34.09 111 C 34.02 116.33 34.33 118.5 34.24 121 C 34.15 123.5 33.74 125.06 33.53 126 C 33.32 126.94 33.42 126.43 33 126.64 C 32.58 126.86 33.33 127.2 31 127.29 C 28.67 127.37 21.27 127.38 19 127.17 C 16.73 126.95 17.77 128.53 17.4 126 C 17.03 123.47 16.71 118.67 16.76 112 C 16.81 105.33 17.37 90.83 17.67 86 C 17.98 81.17 18.12 84 18.57 83 C 19.01 82 19.27 81.29 20.34 80 C 21.42 78.71 23.72 76.36 25 75.27 C 26.28 74.19 26.83 74.01 28 73.51 C 29.17 73.01 30.33 72.58 32 72.29 C 33.67 71.99 36 71.72 38 71.75 C 40 71.78 42.17 72.01 44 72.48 C 45.83 72.95 47.67 73.9 49 74.58 C 50.33 75.27 51.09 75.85 52 76.58 C 52.91 77.32 53.7 78.1 54.47 79 C 55.23 79.9 56.08 81.17 56.58 82 C 57.08 82.83 57.15 82.67 57.46 84 C 57.77 85.33 58.23 85.67 58.42 90 C 58.61 94.33 58.33 106.33 58.6 110 C 58.86 113.67 59.27 111.58 60 112.02 C 60.73 112.45 62.33 112.58 63 112.62 C 63.67 112.66 63.59 112.54 64 112.27 C 64.41 112 65.15 111.54 65.47 111 C 65.78 110.46 65.74 112.83 65.9 109 C 66.05 105.17 66.15 92.17 66.41 88 C 66.68 83.83 67 85.33 67.49 84 C 67.98 82.67 68.76 81 69.35 80 C 69.94 79 70.25 78.76 71.02 78 C 71.8 77.24 73 76.16 74 75.43 C 75 74.71 75.67 74.18 77 73.65 C 78.33 73.12 80.33 72.55 82 72.26 C 83.67 71.98 85.17 71.92 87 71.95 C 88.83 71.99 91 71.93 93 72.48 C 95 73.02 97.83 74.79 99 75.24 C 100.17 75.68 98.83 75.61 100 75.16 C 101.17 74.7 104.33 73.08 106 72.52 C 107.67 71.96 108.67 71.95 110 71.81 C 111.33 71.67 112.5 71.57 114 71.68 C 115.5 71.8 117.33 71.99 119 72.5 C 120.67 73.02 122.83 74.18 124 74.79 C 125.17 75.4 124.94 75.13 126 76.16 C 127.06 77.2 129.49 79.86 130.38 81 C 131.26 82.14 130.9 81.83 131.29 83 C 131.69 84.17 132.41 83.5 132.74 88 C 133.07 92.5 133.13 106.17 133.28 110 C 133.42 113.83 133.35 110.67 133.61 111 C 133.87 111.33 134.25 111.77 134.82 112 C 135.38 112.23 136.3 112.43 137 112.37 C 137.7 112.31 138.44 112.03 139 111.63 C 139.56 111.24 140.04 113.94 140.34 110 C 140.64 106.06 140.54 92.33 140.79 88 C 141.04 83.67 141.2 85.5 141.85 84 C 142.49 82.5 143.63 80.38 144.65 79 C 145.68 77.62 146.94 76.61 148 75.74 C 149.06 74.87 149.83 74.31 151 73.76 C 152.17 73.21 153.33 72.76 155 72.43 C 156.67 72.1 159 71.8 161 71.79 C 163 71.78 165.17 71.94 167 72.38 C 168.83 72.81 170.83 73.87 172 74.39 C 173.17 74.91 172.93 74.56 174 75.49 C 175.07 76.43 177.47 78.92 178.4 80 C 179.33 81.08 179.04 80.67 179.55 82 C 180.07 83.33 181.09 85.33 181.49 88 C 181.89 90.67 181.93 91.67 181.95 98 C 181.97 104.33 181.77 121.2 181.61 126 Z"/>
</svg>
