<?xml version="1.0" encoding="UTF-8"?>
<svg version="1.1" xmlns="http://www.w3.org/2000/svg" width="300" height="300">
<path d="M0 0 C5.18916683 1.88696976 8.41052071 6.86974476 10.69921875 11.7578125 C11.2985846 13.20544634 11.87656979 14.66204394 12.4375 16.125 C12.92778687 17.38062744 12.92778687 17.38062744 13.42797852 18.66162109 C22.55370121 42.91111487 28.73970935 68.34812547 35.27905273 93.38638306 C39.63979296 116.74501714 39.63979296 116.74501714 51.43359375 135.8671875 C52.19800781 136.24101562 52.96242188 136.61484375 53.75 137 C57.59142051 133.53401464 59.56612378 130.80483603 61.1796875 125.8984375 C61.77837646 124.10128296 61.77837646 124.10128296 62.38916016 122.26782227 C62.80216363 120.97055084 63.21408236 119.67293364 63.625 118.375 C64.06404217 117.02197348 64.50333633 115.6690287 64.94287109 114.31616211 C69.10968624 101.35475015 72.49015439 88.21504059 75.75 75 C79.64436791 59.37455275 83.66346935 43.79745863 88.23495483 28.35528564 C88.65491206 26.93292159 89.07045058 25.50924387 89.48110962 24.08416748 C94.5394141 6.60016972 94.5394141 6.60016972 99.75 1 C102.43798828 0.24291992 102.43798828 0.24291992 104.75 0 C118.85914989 14.91538703 122.46938301 40.91953926 127.4375 60.25 C127.68579559 61.20759216 127.93409119 62.16518433 128.18991089 63.15179443 C133.72118441 84.48655057 138.87010284 105.914347 143.92771912 127.36572266 C145.29092273 133.1341004 146.71950007 138.87596128 148.28491211 144.59326172 C148.84652443 147.49949494 148.99702327 150.04725689 148.75 153 C146.0625 155.9375 146.0625 155.9375 142.75 158 C138.86978013 158 136.57939402 156.5635639 133.75 154 C132.78027344 151.58105469 132.78027344 151.58105469 132.109375 148.671875 C131.84753418 147.57713867 131.58569336 146.48240234 131.31591797 145.35449219 C130.91203857 143.57026855 130.91203857 143.57026855 130.5 141.75 C129.89456011 139.20801597 129.28773732 136.66636099 128.6796875 134.125 C128.36294695 132.78255415 128.04621529 131.44010621 127.72949219 130.09765625 C126.11379616 123.29361373 124.37322604 116.52099247 122.625 109.75 C122.45442078 109.08899292 122.28384155 108.42798584 122.10809326 107.74694824 C116.11345193 81.11815253 116.11345193 81.11815253 102.75 58 C100.33124825 58.37529592 99.06805085 58.65031029 97.39526367 60.48950195 C94.16846632 65.85351994 91.97811075 71.23710846 90.0625 77.1875 C89.56266602 78.71274292 89.56266602 78.71274292 89.05273438 80.26879883 C84.73638352 93.75145533 81.19433716 107.46167597 77.57064819 121.14265442 C59.78484119 188.28090218 59.78484119 188.28090218 52.75 194 C49.4375 194.625 49.4375 194.625 45.75 194 C37.24313592 187.34771293 34.42650107 175.51289308 31.4375 165.6875 C31.24401978 165.05838715 31.05053955 164.42927429 30.85119629 163.78109741 C26.99994876 151.2483811 23.694472 138.5924948 20.48486328 125.88134766 C18.95260411 119.87346636 17.27558822 113.90862247 15.57958984 107.9453125 C14.71934534 104.89116602 13.87480327 101.83295732 13.0316925 98.77404785 C12.16521829 95.6390783 11.28940573 92.50675486 10.41226196 89.37475586 C9.97629003 87.81143656 9.54372307 86.24716304 9.11483765 84.68188477 C5.60836092 70.23621151 5.60836092 70.23621151 -2.25 58 C-4.75210341 57.9054638 -4.75210341 57.9054638 -7.25 59 C-22.91124263 79.3308792 -27.80977676 114.4124756 -33.75 139.17578125 C-33.96688477 140.06201172 -34.18376953 140.94824219 -34.40722656 141.86132812 C-34.78598482 143.42752784 -35.1489413 144.99768922 -35.49121094 146.57226562 C-36.33107938 150.04815681 -37.1446145 151.8946145 -39.69921875 154.44921875 C-42.88312949 156.38491946 -44.58516069 156.62380244 -48.25 156 C-50.6875 154.625 -50.6875 154.625 -52.25 152 C-52.5285928 143.9258194 -49.74706161 136.06039407 -47.4375 128.4375 C-47.0366237 127.09149273 -46.63666806 125.74521097 -46.23754883 124.39868164 C-45.59622739 122.23672531 -44.95383774 120.07511975 -44.3079071 117.91453552 C-42.64368307 112.34747424 -41.01772238 106.77003876 -39.40625 101.1875 C-14.00358872 13.30070425 -14.00358872 13.30070425 -4.25 1 C-2.25 0 -2.25 0 0 0 Z " fill="#000000" transform="translate(104.25,56)"/>
</svg>
