<?xml version="1.0" standalone="no"?>
<!DOCTYPE svg PUBLIC "-//W3C//DTD SVG 20010904//EN"
 "http://www.w3.org/TR/2001/REC-SVG-20010904/DTD/svg10.dtd">
<svg version="1.0" xmlns="http://www.w3.org/2000/svg"
 width="320.000000pt" height="320.000000pt" viewBox="0 0 320.000000 320.000000"
 preserveAspectRatio="xMidYMid meet">

<g transform="translate(0.000000,320.000000) scale(0.100000,-0.100000)"
fill="#000000" stroke="none">
<path d="M353 1753 c-16 -3 -28 -19 -43 -59 -11 -30 -20 -59 -20 -65 0 -22 34
-59 73 -79 44 -23 87 -58 87 -71 0 -13 -31 -39 -46 -39 -8 0 -32 17 -55 37
-43 39 -58 35 -59 -13 0 -36 24 -47 107 -46 99 2 123 20 123 98 0 46 -4 57
-33 86 -18 18 -47 41 -65 50 -36 19 -38 26 -18 53 13 18 15 18 39 2 14 -9 28
-26 32 -37 11 -33 77 -28 117 11 30 28 33 29 45 13 19 -26 17 -197 -2 -235
-17 -32 -17 -31 37 -43 14 -3 36 -2 48 2 21 8 22 13 21 139 -2 101 1 132 12
142 17 13 43 6 51 -15 3 -8 12 -14 21 -14 19 0 21 53 1 69 -9 7 -76 11 -202
11 -104 -1 -202 1 -219 4 -16 2 -40 2 -52 -1z"/>
<path d="M1225 1752 c-22 -2 -44 -7 -48 -11 -5 -5 -28 -6 -53 -3 -35 4 -44 2
-44 -11 0 -9 5 -19 10 -22 6 -3 10 -52 10 -110 0 -96 -2 -105 -22 -119 -27
-19 -67 -20 -91 -2 -13 10 -17 28 -17 72 0 33 0 68 -1 79 0 11 4 40 11 64 8
35 8 46 -2 52 -20 13 -86 11 -94 -3 -11 -17 -5 -217 7 -254 9 -31 76 -84 105
-84 26 0 94 25 94 34 0 5 7 18 16 28 12 12 18 41 20 90 6 112 17 162 36 166
10 2 23 -8 32 -25 12 -23 13 -51 7 -143 -5 -63 -7 -118 -5 -122 2 -3 42 -6 89
-7 80 0 87 2 140 37 36 24 58 46 61 62 3 14 10 38 16 53 8 20 8 31 -1 40 -6 6
-11 20 -11 32 0 32 -59 84 -103 89 -43 6 -46 -3 -14 -47 19 -27 22 -44 21
-111 -2 -71 -4 -81 -25 -97 -13 -10 -34 -19 -46 -19 -22 0 -22 2 -18 117 3 65
7 130 10 144 5 23 3 27 -22 30 -15 2 -46 3 -68 1z"/>
<path d="M1547 1743 c-9 -14 -11 -196 -3 -220 4 -14 1 -31 -10 -48 -13 -20
-14 -28 -4 -40 13 -16 67 -20 86 -7 8 5 13 60 15 162 l4 155 -42 3 c-22 2 -43
-1 -46 -5z"/>
<path d="M1766 1728 c-22 -13 -42 -30 -46 -38 -4 -8 -12 -25 -18 -37 -18 -35
-14 -99 9 -148 24 -50 28 -54 79 -72 117 -42 229 34 230 155 0 59 -15 95 -55
132 -38 36 -144 40 -199 8z m121 -3 c40 -28 53 -114 32 -208 -12 -51 -38 -77
-76 -77 -16 0 -23 6 -23 19 0 10 -6 24 -14 30 -20 17 -29 111 -16 161 11 39
49 90 67 90 5 0 18 -7 30 -15z"/>
<path d="M2123 1735 c-22 -9 -33 -21 -33 -35 0 -11 5 -20 11 -20 12 0 8 -201
-6 -238 -7 -23 -6 -23 50 -20 l58 3 -2 150 c-2 126 -5 152 -18 163 -20 15 -20
15 -60 -3z"/>
<path d="M2327 1743 c-3 -5 -13 -41 -22 -81 -17 -71 -17 -73 1 -87 10 -8 27
-15 37 -15 24 0 73 -26 79 -42 9 -22 -10 -58 -31 -58 -11 0 -32 8 -49 17 -45
26 -92 -6 -62 -42 35 -42 156 11 185 81 18 44 35 40 50 -11 11 -41 61 -85 96
-85 9 0 37 18 60 40 24 22 46 40 50 40 4 0 16 -10 26 -23 10 -13 32 -33 50
-46 39 -30 66 -24 116 25 30 29 37 44 37 74 0 43 -33 85 -74 96 -36 9 -33 39
5 75 18 16 29 32 25 36 -13 13 -92 -21 -121 -53 -17 -19 -39 -34 -48 -34 -9 0
-30 22 -48 48 -28 44 -36 49 -71 50 -56 3 -72 -9 -109 -83 -38 -76 -42 -80
-60 -59 -7 8 -27 21 -46 29 -45 19 -42 35 6 35 31 0 44 6 60 26 32 40 13 54
-70 54 -37 0 -70 -3 -72 -7z m302 -110 c13 -67 9 -159 -7 -175 -19 -19 -27 0
-29 70 -1 37 -3 74 -4 82 -5 40 2 80 15 80 8 0 17 -21 25 -57z m225 -80 c3
-10 0 -38 -8 -62 l-13 -44 -10 49 c-5 28 -8 55 -5 62 6 18 30 14 36 -5z"/>
</g>
</svg>
