<?xml version="1.0" encoding="UTF-8"?>
<svg version="1.1" xmlns="http://www.w3.org/2000/svg" width="2481" height="2148">
<path d="M0 0 C0.66 0 1.32 0 2 0 C2.3810791 0.66193359 2.7621582 1.32386719 3.15478516 2.00585938 C4.97750122 5.17097015 6.80097008 8.33564627 8.625 11.5 C8.96290558 12.08622131 9.30081116 12.67244263 9.6489563 13.27642822 C14.3855068 21.49146796 19.14840099 29.6904478 23.9375 37.875 C29.35932998 47.14492799 34.70204981 56.45831867 40.01922607 65.78845215 C45.22045129 74.9128284 50.48027878 84.00132774 55.78344727 93.06689453 C61.93766742 103.59084625 68.02369996 114.15380137 74.10888672 124.71777344 C77.23680148 130.14659942 80.36858448 135.57319281 83.5 141 C84.75001879 143.16665583 86.00001878 145.3333225 87.25 147.5 C87.86875 148.5725 88.4875 149.645 89.125 150.75 C124.75000001 212.50000001 124.75000001 212.50000001 126.62524414 215.75048828 C127.87435518 217.91557071 129.12354129 220.08060982 130.37280273 222.24560547 C133.51202309 227.68615706 136.64990563 233.12747216 139.78515625 238.5703125 C145.80747329 249.02206199 151.84669337 259.46299548 157.9375 269.875 C163.35921178 279.14499777 168.70204915 288.45831752 174.01922607 297.78845215 C179.22045129 306.9128284 184.48027878 316.00132774 189.78344727 325.06689453 C195.93766742 335.59084625 202.02369996 346.15380137 208.10888672 356.71777344 C211.23680148 362.14659942 214.36858448 367.57319281 217.5 373 C218.75001879 375.16665583 220.00001878 377.3333225 221.25 379.5 C221.86875 380.5725 222.4875 381.645 223.125 382.75 C258.75000001 444.50000002 258.75000001 444.50000002 260.62524414 447.75048828 C261.87435518 449.91557071 263.12354129 452.08060982 264.37280273 454.24560547 C267.51202309 459.68615706 270.64990563 465.12747216 273.78515625 470.5703125 C279.83055159 481.06232094 285.89110219 491.54481676 292 502 C298.74701194 513.54729516 305.43339318 525.12902027 312.10888672 536.71777344 C315.23680148 542.14659942 318.36858448 547.57319281 321.5 553 C322.75001879 555.16665583 324.00001878 557.3333225 325.25 559.5 C325.86875 560.5725 326.4875 561.645 327.125 562.75 C392.74999999 676.49999998 392.74999999 676.49999998 394.62524414 679.75048828 C395.87435518 681.91557071 397.12354129 684.08060982 398.37280273 686.24560547 C401.51202309 691.68615706 404.64990563 697.12747216 407.78515625 702.5703125 C413.83055159 713.06232094 419.89110219 723.54481676 426 734 C432.74701194 745.54729516 439.43339318 757.12902027 446.10888672 768.71777344 C449.23680148 774.14659942 452.36858448 779.57319281 455.5 785 C456.75001879 787.16665583 458.00001878 789.3333225 459.25 791.5 C459.86875 792.5725 460.4875 793.645 461.125 794.75 C526.75 908.49999999 526.75 908.49999999 528.62524414 911.75048828 C529.87435518 913.91557071 531.12354129 916.08060982 532.37280273 918.24560547 C535.51202309 923.68615706 538.64990563 929.12747216 541.78515625 934.5703125 C547.83055159 945.06232094 553.89110219 955.54481676 560 966 C566.74701194 977.54729516 573.43339318 989.12902027 580.10888672 1000.71777344 C583.23680148 1006.14659942 586.36858448 1011.57319281 589.5 1017 C590.75001879 1019.16665583 592.00001878 1021.3333225 593.25 1023.5 C593.86875 1024.5725 594.4875 1025.645 595.125 1026.75 C660.75000001 1140.50000001 660.75000001 1140.50000001 662.62524414 1143.75048828 C663.87435518 1145.91557071 665.12354129 1148.08060982 666.37280273 1150.24560547 C669.51202309 1155.68615706 672.64990563 1161.12747216 675.78515625 1166.5703125 C681.83055159 1177.06232094 687.89110219 1187.54481676 694 1198 C700.74701194 1209.54729516 707.43339318 1221.12902027 714.10888672 1232.71777344 C717.23680148 1238.14659942 720.36858448 1243.57319281 723.5 1249 C724.75001879 1251.16665583 726.00001878 1253.3333225 727.25 1255.5 C727.86875 1256.5725 728.4875 1257.645 729.125 1258.75 C794.75000002 1372.50000003 794.75000002 1372.50000003 796.62524414 1375.75048828 C797.87435518 1377.91557071 799.12354129 1380.08060982 800.37280273 1382.24560547 C803.51202309 1387.68615706 806.64990563 1393.12747216 809.78515625 1398.5703125 C815.83055159 1409.06232094 821.89110219 1419.54481676 828 1430 C834.74701194 1441.54729516 841.43339318 1453.12902027 848.10888672 1464.71777344 C851.23680148 1470.14659942 854.36858448 1475.57319281 857.5 1481 C858.75001879 1483.16665583 860.00001878 1485.3333225 861.25 1487.5 C861.86875 1488.5725 862.4875 1489.645 863.125 1490.75 C928.74999999 1604.49999998 928.74999999 1604.49999998 930.62524414 1607.75048828 C931.87435518 1609.91557071 933.12354129 1612.08060982 934.37280273 1614.24560547 C937.51202309 1619.68615706 940.64990563 1625.12747216 943.78515625 1630.5703125 C949.83055159 1641.06232094 955.89110219 1651.54481676 962 1662 C968.74701194 1673.54729516 975.43339318 1685.12902027 982.10888672 1696.71777344 C985.23680148 1702.14659942 988.36858448 1707.57319281 991.5 1713 C992.75001879 1715.16665583 994.00001878 1717.3333225 995.25 1719.5 C995.86875 1720.5725 996.4875 1721.645 997.125 1722.75 C1062.74999999 1836.49999998 1062.74999999 1836.49999998 1064.62524414 1839.75048828 C1065.87435518 1841.91557071 1067.12354129 1844.08060982 1068.37280273 1846.24560547 C1071.51202309 1851.68615706 1074.64990563 1857.12747216 1077.78515625 1862.5703125 C1083.83055159 1873.06232094 1089.89110219 1883.54481676 1096 1894 C1102.74701194 1905.54729516 1109.43339318 1917.12902027 1116.10888672 1928.71777344 C1119.23680148 1934.14659942 1122.36858448 1939.57319281 1125.5 1945 C1126.75001879 1947.16665583 1128.00001878 1949.3333225 1129.25 1951.5 C1129.86875 1952.5725 1130.4875 1953.645 1131.125 1954.75 C1196.75000001 2068.50000001 1196.75000001 2068.50000001 1198.62524414 2071.75048828 C1199.87435518 2073.91557071 1201.12354129 2076.08060982 1202.37280273 2078.24560547 C1205.51202309 2083.68615706 1208.64990563 2089.12747216 1211.78515625 2094.5703125 C1213.04421708 2096.75523931 1214.30333141 2098.94013529 1215.5625 2101.125 C1216.17657715 2102.19105469 1216.7906543 2103.25710937 1217.42333984 2104.35546875 C1220.55598294 2109.78747353 1223.70395597 2115.2097879 1226.87890625 2120.6171875 C1227.50788818 2121.68952637 1228.13687012 2122.76186523 1228.78491211 2123.86669922 C1229.9690454 2125.88304083 1231.15584504 2127.89782019 1232.34594727 2129.91064453 C1232.88405029 2130.82700684 1233.42215332 2131.74336914 1233.9765625 2132.6875 C1234.67386475 2133.86892578 1234.67386475 2133.86892578 1235.38525391 2135.07421875 C1237.72392936 2139.31169783 1239.83548473 2143.67096945 1242 2148 C423.27 2148 -395.46 2148 -1239 2148 C-1237.53195771 2143.59587313 -1236.32284118 2140.52117022 -1234.05078125 2136.640625 C-1233.4578125 2135.62097656 -1232.86484375 2134.60132812 -1232.25390625 2133.55078125 C-1231.29291016 2131.91689453 -1231.29291016 2131.91689453 -1230.3125 2130.25 C-1229.63743361 2129.09279028 -1228.96296538 2127.93523143 -1228.2890625 2126.77734375 C-1226.88984195 2124.37429418 -1225.48807065 2121.9727608 -1224.08447266 2119.57226562 C-1220.86550635 2114.06213188 -1217.68480155 2108.52992383 -1214.5 2103 C-1213.25017876 2100.83323021 -1212.0001782 2098.66656385 -1210.75 2096.5 C-1210.13125 2095.4275 -1209.5125 2094.355 -1208.875 2093.25 C-1168.5625 2023.375 -1168.5625 2023.375 -1128.25 1953.5 C-1127.63116943 1952.42733887 -1127.01233887 1951.35467773 -1126.37475586 1950.24951172 C-1125.12564482 1948.08442929 -1123.87645871 1945.91939018 -1122.62719727 1943.75439453 C-1119.48797691 1938.31384294 -1116.35009437 1932.87252784 -1113.21484375 1927.4296875 C-1107.19252671 1916.97793801 -1101.15330663 1906.53700452 -1095.0625 1896.125 C-1089.98724877 1887.44737759 -1084.97741233 1878.73394432 -1080 1870 C-1074.4599827 1860.27884383 -1068.86625191 1850.59105342 -1063.21655273 1840.93310547 C-1057.06233258 1830.40915375 -1050.97630004 1819.84619863 -1044.89111328 1809.28222656 C-1041.76319852 1803.85340058 -1038.63141552 1798.42680719 -1035.5 1793 C-1034.24998121 1790.83334417 -1032.99998122 1788.6666775 -1031.75 1786.5 C-1004.25 1738.83333333 -976.75 1691.16666667 -949.25 1643.5 C-948.63116943 1642.42733887 -948.01233887 1641.35467773 -947.37475586 1640.24951172 C-946.12564482 1638.08442929 -944.87645871 1635.91939018 -943.62719727 1633.75439453 C-940.48797691 1628.31384294 -937.35009437 1622.87252784 -934.21484375 1617.4296875 C-928.19252671 1606.97793801 -922.15330663 1596.53700452 -916.0625 1586.125 C-910.98724877 1577.44737759 -905.97741233 1568.73394432 -901 1560 C-895.4599827 1550.27884383 -889.86625191 1540.59105342 -884.21655273 1530.93310547 C-878.06233258 1520.40915375 -871.97630004 1509.84619863 -865.89111328 1499.28222656 C-862.76319852 1493.85340058 -859.63141552 1488.42680719 -856.5 1483 C-855.24998121 1480.83334417 -853.99998122 1478.6666775 -852.75 1476.5 C-820.25 1420.16666667 -787.75 1363.83333333 -755.25 1307.5 C-754.63116943 1306.42733887 -754.01233887 1305.35467773 -753.37475586 1304.24951172 C-752.12564482 1302.08442929 -750.87645871 1299.91939018 -749.62719727 1297.75439453 C-746.48797691 1292.31384294 -743.35009437 1286.87252784 -740.21484375 1281.4296875 C-734.19252671 1270.97793801 -728.15330663 1260.53700452 -722.0625 1250.125 C-716.98724877 1241.44737759 -711.97741233 1232.73394432 -707 1224 C-701.4599827 1214.27884383 -695.86625191 1204.59105342 -690.21655273 1194.93310547 C-684.06233258 1184.40915375 -677.97630004 1173.84619863 -671.89111328 1163.28222656 C-668.76319852 1157.85340058 -665.63141552 1152.42680719 -662.5 1147 C-661.24998121 1144.83334417 -659.99998122 1142.6666775 -658.75 1140.5 C-626.25 1084.16666667 -593.75 1027.83333333 -561.25 971.5 C-560.63116943 970.42733887 -560.01233887 969.35467773 -559.37475586 968.24951172 C-558.12564482 966.08442929 -556.87645871 963.91939018 -555.62719727 961.75439453 C-552.48797691 956.31384294 -549.35009437 950.87252784 -546.21484375 945.4296875 C-540.19252671 934.97793801 -534.15330663 924.53700452 -528.0625 914.125 C-522.98724877 905.44737759 -517.97741233 896.73394432 -513 888 C-507.4599827 878.27884383 -501.86625191 868.59105342 -496.21655273 858.93310547 C-490.06233258 848.40915375 -483.97630004 837.84619863 -477.89111328 827.28222656 C-474.76319852 821.85340058 -471.63141552 816.42680719 -468.5 811 C-467.24998121 808.83334417 -465.99998122 806.6666775 -464.75 804.5 C-437.25 756.83333333 -409.75 709.16666667 -382.25 661.5 C-381.63116943 660.42733887 -381.01233887 659.35467773 -380.37475586 658.24951172 C-379.12564482 656.08442929 -377.87645871 653.91939018 -376.62719727 651.75439453 C-373.48797691 646.31384294 -370.35009437 640.87252784 -367.21484375 635.4296875 C-361.19252671 624.97793801 -355.15330663 614.53700452 -349.0625 604.125 C-343.98724877 595.44737759 -338.97741233 586.73394432 -334 578 C-328.4599827 568.27884383 -322.86625191 558.59105342 -317.21655273 548.93310547 C-311.06233258 538.40915375 -304.97630004 527.84619863 -298.89111328 517.28222656 C-295.76319852 511.85340058 -292.63141552 506.42680719 -289.5 501 C-288.24998121 498.83334417 -286.99998122 496.6666775 -285.75 494.5 C-237 410 -237 410 -188.25 325.5 C-187.63116943 324.42733887 -187.01233887 323.35467773 -186.37475586 322.24951172 C-185.12564482 320.08442929 -183.87645871 317.91939018 -182.62719727 315.75439453 C-179.48797691 310.31384294 -176.35009437 304.87252784 -173.21484375 299.4296875 C-167.19252671 288.97793801 -161.15330663 278.53700452 -155.0625 268.125 C-149.98724877 259.44737759 -144.97741233 250.73394432 -140 242 C-134.4599827 232.27884383 -128.86625191 222.59105342 -123.21655273 212.93310547 C-117.06233258 202.40915375 -110.97630004 191.84619863 -104.89111328 181.28222656 C-101.76319852 175.85340058 -98.63141552 170.42680719 -95.5 165 C-94.24998121 162.83334417 -92.99998122 160.6666775 -91.75 158.5 C-74.25 128.16666667 -56.75 97.83333333 -39.25 67.5 C-38.63108887 66.42717773 -38.01217773 65.35435547 -37.37451172 64.24902344 C-36.12628966 62.08552524 -34.87791761 59.92211357 -33.62939453 57.75878906 C-30.47594744 52.29434983 -27.32523904 46.82836355 -24.1796875 41.359375 C-21.07330256 35.96004027 -17.95899567 30.56536088 -14.83740234 25.17480469 C-13.59354286 23.02556887 -12.35173973 20.87514186 -11.11181641 18.72363281 C-9.31122794 15.60298822 -7.50078076 12.48828239 -5.6875 9.375 C-5.14206543 8.42592773 -4.59663086 7.47685547 -4.03466797 6.49902344 C-3.28080811 5.2117334 -3.28080811 5.2117334 -2.51171875 3.8984375 C-2.07303467 3.14224121 -1.63435059 2.38604492 -1.18237305 1.60693359 C-0.79218994 1.07664551 -0.40200684 0.54635742 0 0 Z M0 251 C-0.32049316 251.57105469 -0.64098633 252.14210937 -0.97119141 252.73046875 C-7.75962857 264.81374282 -14.62688908 276.84560648 -21.62768555 288.80712891 C-27.83596803 299.41646789 -33.97328774 310.06628503 -40.10888672 320.71777344 C-43.23680148 326.14659942 -46.36858448 331.57319281 -49.5 337 C-50.75001879 339.16665583 -52.00001878 341.3333225 -53.25 343.5 C-85.75 399.83333333 -118.25 456.16666667 -150.75 512.5 C-151.36883057 513.57266113 -151.98766113 514.64532227 -152.62524414 515.75048828 C-153.87435518 517.91557071 -155.12354129 520.08060982 -156.37280273 522.24560547 C-159.51202309 527.68615706 -162.64990563 533.12747216 -165.78515625 538.5703125 C-171.80747329 549.02206199 -177.84669337 559.46299548 -183.9375 569.875 C-189.01275123 578.55262241 -194.02258767 587.26605568 -199 596 C-204.5400173 605.72115617 -210.13374809 615.40894658 -215.78344727 625.06689453 C-221.93766742 635.59084625 -228.02369996 646.15380137 -234.10888672 656.71777344 C-237.23680148 662.14659942 -240.36858448 667.57319281 -243.5 673 C-244.75001879 675.16665583 -246.00001878 677.3333225 -247.25 679.5 C-296 764 -296 764 -344.75 848.5 C-345.36883057 849.57266113 -345.98766113 850.64532227 -346.62524414 851.75048828 C-347.87435518 853.91557071 -349.12354129 856.08060982 -350.37280273 858.24560547 C-353.51202309 863.68615706 -356.64990563 869.12747216 -359.78515625 874.5703125 C-365.80747329 885.02206199 -371.84669337 895.46299548 -377.9375 905.875 C-383.01275123 914.55262241 -388.02258767 923.26605568 -393 932 C-398.5400173 941.72115617 -404.13374809 951.40894658 -409.78344727 961.06689453 C-415.93766742 971.59084625 -422.02369996 982.15380137 -428.10888672 992.71777344 C-431.23680148 998.14659942 -434.36858448 1003.57319281 -437.5 1009 C-438.75001879 1011.16665583 -440.00001878 1013.3333225 -441.25 1015.5 C-468.75 1063.16666667 -496.25 1110.83333333 -523.75 1158.5 C-524.36883057 1159.57266113 -524.98766113 1160.64532227 -525.62524414 1161.75048828 C-526.87435518 1163.91557071 -528.12354129 1166.08060982 -529.37280273 1168.24560547 C-532.51202309 1173.68615706 -535.64990563 1179.12747216 -538.78515625 1184.5703125 C-544.80747329 1195.02206199 -550.84669337 1205.46299548 -556.9375 1215.875 C-562.01275123 1224.55262241 -567.02258767 1233.26605568 -572 1242 C-577.5400173 1251.72115617 -583.13374809 1261.40894658 -588.78344727 1271.06689453 C-594.93766742 1281.59084625 -601.02369996 1292.15380137 -607.10888672 1302.71777344 C-610.23680148 1308.14659942 -613.36858448 1313.57319281 -616.5 1319 C-617.75001879 1321.16665583 -619.00001878 1323.3333225 -620.25 1325.5 C-652.75 1381.83333333 -685.25 1438.16666667 -717.75 1494.5 C-718.36883057 1495.57266113 -718.98766113 1496.64532227 -719.62524414 1497.75048828 C-720.87435518 1499.91557071 -722.12354129 1502.08060982 -723.37280273 1504.24560547 C-726.51202309 1509.68615706 -729.64990563 1515.12747216 -732.78515625 1520.5703125 C-738.80747329 1531.02206199 -744.84669337 1541.46299548 -750.9375 1551.875 C-756.01275123 1560.55262241 -761.02258767 1569.26605568 -766 1578 C-771.5400173 1587.72115617 -777.13374809 1597.40894658 -782.78344727 1607.06689453 C-788.93766742 1617.59084625 -795.02369996 1628.15380137 -801.10888672 1638.71777344 C-804.23680148 1644.14659942 -807.36858448 1649.57319281 -810.5 1655 C-811.75001879 1657.16665583 -813.00001878 1659.3333225 -814.25 1661.5 C-846.75 1717.83333333 -879.25 1774.16666667 -911.75 1830.5 C-912.36883057 1831.57266113 -912.98766113 1832.64532227 -913.62524414 1833.75048828 C-914.87435518 1835.91557071 -916.12354129 1838.08060982 -917.37280273 1840.24560547 C-920.51202309 1845.68615706 -923.64990563 1851.12747216 -926.78515625 1856.5703125 C-932.80747329 1867.02206199 -938.84669337 1877.46299548 -944.9375 1887.875 C-950.01275123 1896.55262241 -955.02258767 1905.26605568 -960 1914 C-965.5400173 1923.72115617 -971.13374809 1933.40894658 -976.78344727 1943.06689453 C-981.02617273 1950.32211726 -985.23998054 1957.59353319 -989.4375 1964.875 C-990.05657227 1965.94886963 -990.67564453 1967.02273926 -991.31347656 1968.12915039 C-993.86322796 1972.55350496 -996.41182081 1976.97852587 -998.95996094 1981.40380859 C-1000.9102045 1984.79038672 -1002.86126012 1988.17649584 -1004.8125 1991.5625 C-1005.43318359 1992.64063965 -1006.05386719 1993.7187793 -1006.69335938 1994.82958984 C-1009.4909676 1999.68211147 -1012.30110853 2004.52553671 -1015.1640625 2009.33984375 C-1015.87405396 2010.53468384 -1015.87405396 2010.53468384 -1016.59838867 2011.75366211 C-1017.4642552 2013.2061394 -1018.33395536 2014.65634118 -1019.20825195 2016.10375977 C-1021.30446006 2019.32632422 -1021.30446006 2019.32632422 -1022 2023 C-346.82 2023 328.36 2023 1024 2023 C1022.52567141 2018.57701424 1021.29659767 2015.47409784 1019.015625 2011.5703125 C1018.41758057 2010.5405127 1017.81953613 2009.51071289 1017.20336914 2008.44970703 C1016.55875732 2007.35255371 1015.91414551 2006.25540039 1015.25 2005.125 C1014.5716745 2003.96107166 1013.89386723 2002.79684117 1013.21655273 2001.63232422 C1011.48216421 1998.65332543 1009.74148059 1995.67806456 1007.99847412 1992.70410156 C1005.34809866 1988.18069042 1002.7063649 1983.65221817 1000.0625 1979.125 C999.49499023 1978.15449707 998.92748047 1977.18399414 998.34277344 1976.18408203 C993.50052614 1967.89102223 988.73557381 1959.55487059 983.98077393 1951.21154785 C978.77954871 1942.0871716 973.51972122 1932.99867226 968.21655273 1923.93310547 C962.06233258 1913.40915375 955.97630004 1902.84619863 949.89111328 1892.28222656 C946.76319852 1886.85340058 943.63141552 1881.42680719 940.5 1876 C939.24998121 1873.83334417 937.99998122 1871.6666775 936.75 1869.5 C936.13125 1868.4275 935.5125 1867.355 934.875 1866.25 C899.24999999 1804.49999999 899.24999999 1804.49999999 897.37475586 1801.24951172 C896.12564482 1799.08442929 894.87645871 1796.91939018 893.62719727 1794.75439453 C890.48797691 1789.31384294 887.35009437 1783.87252784 884.21484375 1778.4296875 C878.19252671 1767.97793801 872.15330663 1757.53700452 866.0625 1747.125 C860.64078822 1737.85500223 855.29795085 1728.54168248 849.98077393 1719.21154785 C844.77954871 1710.0871716 839.51972122 1700.99867226 834.21655273 1691.93310547 C828.06233258 1681.40915375 821.97630004 1670.84619863 815.89111328 1660.28222656 C812.76319852 1654.85340058 809.63141552 1649.42680719 806.5 1644 C805.24998121 1641.83334417 803.99998122 1639.6666775 802.75 1637.5 C802.13125 1636.4275 801.5125 1635.355 800.875 1634.25 C765.24999999 1572.49999999 765.24999999 1572.49999999 763.37475586 1569.24951172 C762.12564482 1567.08442929 760.87645871 1564.91939018 759.62719727 1562.75439453 C756.48797691 1557.31384294 753.35009437 1551.87252784 750.21484375 1546.4296875 C744.19252671 1535.97793801 738.15330663 1525.53700452 732.0625 1515.125 C726.64078822 1505.85500223 721.29795085 1496.54168248 715.98077393 1487.21154785 C710.77954871 1478.0871716 705.51972122 1468.99867226 700.21655273 1459.93310547 C694.06233258 1449.40915375 687.97630004 1438.84619863 681.89111328 1428.28222656 C678.76319852 1422.85340058 675.63141552 1417.42680719 672.5 1412 C671.24998121 1409.83334417 669.99998122 1407.6666775 668.75 1405.5 C668.13125 1404.4275 667.5125 1403.355 666.875 1402.25 C631.24999999 1340.49999999 631.24999999 1340.49999999 629.37475586 1337.24951172 C628.12564482 1335.08442929 626.87645871 1332.91939018 625.62719727 1330.75439453 C622.48797691 1325.31384294 619.35009437 1319.87252784 616.21484375 1314.4296875 C610.19252671 1303.97793801 604.15330663 1293.53700452 598.0625 1283.125 C592.64078822 1273.85500223 587.29795085 1264.54168248 581.98077393 1255.21154785 C576.77954871 1246.0871716 571.51972122 1236.99867226 566.21655273 1227.93310547 C560.06233258 1217.40915375 553.97630004 1206.84619863 547.89111328 1196.28222656 C544.76319852 1190.85340058 541.63141552 1185.42680719 538.5 1180 C537.24998121 1177.83334417 535.99998122 1175.6666775 534.75 1173.5 C534.13125 1172.4275 533.5125 1171.355 532.875 1170.25 C497.24999998 1108.49999997 497.24999998 1108.49999997 495.37475586 1105.24951172 C494.12564482 1103.08442929 492.87645871 1100.91939018 491.62719727 1098.75439453 C488.48797691 1093.31384294 485.35009437 1087.87252784 482.21484375 1082.4296875 C476.16944841 1071.93767906 470.10889781 1061.45518324 464 1051 C457.25298806 1039.45270484 450.56660682 1027.87097973 443.89111328 1016.28222656 C440.76319852 1010.85340058 437.63141552 1005.42680719 434.5 1000 C433.24998121 997.83334417 431.99998122 995.6666775 430.75 993.5 C430.13125 992.4275 429.5125 991.355 428.875 990.25 C363.25000001 876.50000002 363.25000001 876.50000002 361.37475586 873.24951172 C360.12564482 871.08442929 358.87645871 868.91939018 357.62719727 866.75439453 C354.48797691 861.31384294 351.35009437 855.87252784 348.21484375 850.4296875 C342.16944841 839.93767906 336.10889781 829.45518324 330 819 C323.25298806 807.45270484 316.56660682 795.87097973 309.89111328 784.28222656 C306.76319852 778.85340058 303.63141552 773.42680719 300.5 768 C299.24998121 765.83334417 297.99998122 763.6666775 296.75 761.5 C296.13125 760.4275 295.5125 759.355 294.875 758.25 C229.25000001 644.50000002 229.25000001 644.50000002 227.37475586 641.24951172 C226.12564482 639.08442929 224.87645871 636.91939018 223.62719727 634.75439453 C220.48797691 629.31384294 217.35009437 623.87252784 214.21484375 618.4296875 C208.16944841 607.93767906 202.10889781 597.45518324 196 587 C189.25298806 575.45270484 182.56660682 563.87097973 175.89111328 552.28222656 C172.76319852 546.85340058 169.63141552 541.42680719 166.5 536 C165.24998121 533.83334417 163.99998122 531.6666775 162.75 529.5 C162.13125 528.4275 161.5125 527.355 160.875 526.25 C95.25 412.49999999 95.25 412.49999999 93.37475586 409.24951172 C92.12564482 407.08442929 90.87645871 404.91939018 89.62719727 402.75439453 C86.48797691 397.31384294 83.35009437 391.87252784 80.21484375 386.4296875 C74.16944841 375.93767906 68.10889781 365.45518324 62 355 C55.25298806 343.45270484 48.56660682 331.87097973 41.89111328 320.28222656 C38.76319851 314.85340056 35.63139233 309.42682059 32.5 304 C31.25910526 301.84896371 30.01821986 299.69792203 28.77734375 297.546875 C26.52152246 293.63670629 24.26516622 289.72684735 22.0080719 285.81741333 C8.44902888 262.33215937 8.44902888 262.33215937 2 251 C1.34 251 0.68 251 0 251 Z " fill="#000000" transform="translate(1239,0)"/>
<path d="M0 0 C1.32 0 2.64 0 4 0 C4.79367614 40.08040767 5.24059602 80.15489222 5.49062446 120.24182734 C5.52580723 125.88019956 5.56217725 131.51856313 5.59924126 137.15692329 C5.61021251 138.82716371 5.62118356 140.49740414 5.63215441 142.16764456 C5.63763044 143.00130895 5.64310647 143.83497334 5.64874845 144.69390029 C5.75108925 160.29991171 5.84937148 175.90594666 5.94634294 191.51199222 C6.02718218 204.50240674 6.11227058 217.49278756 6.20043945 230.4831543 C6.78556195 316.80711097 7.10743607 403.12634419 7 529 C14.18297154 521.84552041 21.08474017 514.46584237 27.4375 506.5625 C31.28045479 501.78458662 35.36831329 497.31005016 39.55615234 492.83837891 C43.47906854 488.62570895 47.11911024 484.23586445 50.72265625 479.74609375 C53.21826469 476.73680948 55.83765143 473.86061346 58.5 471 C61.97419243 467.26672745 65.3006871 463.47628889 68.5 459.5 C72.1356405 454.98141824 75.96836402 450.72016671 79.91625977 446.47827148 C82.88715628 443.2670095 85.69961077 439.97372185 88.4375 436.5625 C92.28045479 431.78458662 96.36831329 427.31005016 100.55615234 422.83837891 C104.47906854 418.62570895 108.11911024 414.23586445 111.72265625 409.74609375 C114.21826469 406.73680948 116.83765143 403.86061346 119.5 401 C122.97419243 397.26672745 126.3006871 393.47628889 129.5 389.5 C133.13499389 384.98222187 136.9671029 380.72181484 140.9140625 376.48046875 C143.90441358 373.24788253 146.73786329 369.93294134 149.5 366.5 C153.1356405 361.98141824 156.96836402 357.72016671 160.91625977 353.47827148 C163.88715628 350.2670095 166.69961077 346.97372185 169.4375 343.5625 C173.41895863 338.60731507 177.65738252 333.9487398 182.01538086 329.32641602 C184.23598998 326.96228195 186.19556478 324.70665282 188 322 C188.99 322.33 189.98 322.66 191 323 C190.43384016 326.88350268 188.66155353 328.75770314 186 331.5625 C182.77424968 335.04224641 179.66965927 338.55910086 176.6875 342.25 C173.23157967 346.51731033 169.70622101 350.71311775 166.125 354.875 C162.21168335 359.42295883 158.30994767 363.97966422 154.4375 368.5625 C153.76291748 369.36083252 153.76291748 369.36083252 153.07470703 370.17529297 C152.16931558 371.2471334 151.26404183 372.31907326 150.35888672 373.39111328 C148.53290227 375.55303163 146.70489675 377.7132358 144.87670898 379.87329102 C143.96068121 380.95566254 143.04482764 382.03818153 142.12915039 383.12084961 C139.81543212 385.85636732 137.49956105 388.59001211 135.1796875 391.3203125 C130.94920376 396.30314347 126.7414632 401.29702715 122.625 406.375 C118.45843577 411.49733524 114.13798719 416.47417378 109.79956055 421.45043945 C105.87510903 425.96215363 102.06573217 430.55325555 98.30078125 435.19921875 C94.61993587 439.6799762 90.82486807 444.06159186 87.04296875 448.45703125 C84.15769425 451.81142628 81.29320938 455.18291989 78.4375 458.5625 C77.76291748 459.36083252 77.76291748 459.36083252 77.07470703 460.17529297 C76.16931558 461.2471334 75.26404183 462.31907326 74.35888672 463.39111328 C72.53290227 465.55303163 70.70489675 467.7132358 68.87670898 469.87329102 C67.96068121 470.95566254 67.04482764 472.03818153 66.12915039 473.12084961 C63.81543212 475.85636732 61.49956105 478.59001211 59.1796875 481.3203125 C54.94920376 486.30314347 50.7414632 491.29702715 46.625 496.375 C42.45908278 501.49653981 38.13909805 506.47239757 33.80175781 511.44824219 C29.87124934 515.96752197 26.04727828 520.56034358 22.27734375 525.21484375 C17.92490561 530.53780841 13.45471319 535.76258954 9 541 C10.52079073 544.50827915 12.5995673 546.95271646 15.1875 549.75 C17.99045417 552.80776819 20.78107908 555.86719183 23.5 559 C27.61081039 563.71701284 31.80667845 568.35638889 36 573 C40.76786975 578.27985576 45.51512218 583.57291806 50.1875 588.9375 C53.0326929 592.1751333 55.92853836 595.3668629 58.81640625 598.56640625 C60.70848685 600.67511146 62.57905758 602.79919801 64.4375 604.9375 C67.24822525 608.16559512 70.115799 611.33738443 73 614.5 C76.45575413 618.28934126 79.8652289 622.11083698 83.23046875 625.98046875 C86.77576954 630.02665089 90.39458999 634.00743187 94 638 C98.76786975 643.27985576 103.51512218 648.57291806 108.1875 653.9375 C111.0326929 657.1751333 113.92853836 660.3668629 116.81640625 663.56640625 C118.70848685 665.67511146 120.57905758 667.79919801 122.4375 669.9375 C125.24822525 673.16559512 128.115799 676.33738443 131 679.5 C134.45328153 683.28662998 137.86099051 687.1047632 141.22265625 690.97265625 C143.29359487 693.33489173 145.39512848 695.66795853 147.5 698 C150.17048344 700.95869751 152.82298058 703.92926472 155.4375 706.9375 C158.24822525 710.16559512 161.115799 713.33738443 164 716.5 C167.45575413 720.28934126 170.8652289 724.11083698 174.23046875 727.98046875 C177.77576954 732.02665089 181.39458999 736.00743187 185 740 C189.76786975 745.27985576 194.51512218 750.57291806 199.1875 755.9375 C202.0326929 759.1751333 204.92853836 762.3668629 207.81640625 765.56640625 C209.70848685 767.67511146 211.57905758 769.79919801 213.4375 771.9375 C216.24822525 775.16559512 219.115799 778.33738443 222 781.5 C225.45328153 785.28662998 228.86099051 789.1047632 232.22265625 792.97265625 C234.29359487 795.33489173 236.39512848 797.66795853 238.5 800 C241.17048344 802.95869751 243.82298058 805.92926472 246.4375 808.9375 C249.24822525 812.16559512 252.115799 815.33738443 255 818.5 C258.45575413 822.28934126 261.8652289 826.11083698 265.23046875 829.98046875 C268.77576954 834.02665089 272.39458999 838.00743187 276 842 C280.76786975 847.27985576 285.51512218 852.57291806 290.1875 857.9375 C293.0326929 861.1751333 295.92853836 864.3668629 298.81640625 867.56640625 C300.70848685 869.67511146 302.57905758 871.79919801 304.4375 873.9375 C307.24822525 877.16559512 310.115799 880.33738443 313 883.5 C316.45328153 887.28662998 319.86099051 891.1047632 323.22265625 894.97265625 C325.29359487 897.33489173 327.39512848 899.66795853 329.5 902 C332.17048344 904.95869751 334.82298058 907.92926472 337.4375 910.9375 C340.24822525 914.16559512 343.115799 917.33738443 346 920.5 C349.45575413 924.28934126 352.8652289 928.11083698 356.23046875 931.98046875 C359.77576954 936.02665089 363.39458999 940.00743187 367 944 C371.76786975 949.27985576 376.51512218 954.57291806 381.1875 959.9375 C383.27211164 962.30964429 385.38428644 964.65556065 387.5 967 C390.79711388 970.65476691 394.0707798 974.32633671 397.2890625 978.05078125 C398.51133087 979.44327421 399.75921822 980.81344809 401.0234375 982.16796875 C402.00183594 983.22951172 402.00183594 983.22951172 403 984.3125 C403.8971875 985.26576172 403.8971875 985.26576172 404.8125 986.23828125 C405.204375 986.81964844 405.59625 987.40101563 406 988 C404.75078531 991.74764406 403.16787484 992.67889091 400.0625 995.0625 C396.39948212 997.88153077 396.39948212 997.88153077 393 1001 C388.00883795 996.29771549 383.68232813 991.22914125 379.38671875 985.890625 C377.00629518 983.00762428 374.53320218 980.24921167 372 977.5 C367.90648909 973.05272888 364.07557501 968.45282537 360.28125 963.75 C357.93281032 960.91900422 355.49090098 958.20616402 353 955.5 C348.90648909 951.05272888 345.07557501 946.45282537 341.28125 941.75 C338.93281032 938.91900422 336.49090098 936.20616402 334 933.5 C329.90648909 929.05272888 326.07557501 924.45282537 322.28125 919.75 C319.93281032 916.91900422 317.49090098 914.20616402 315 911.5 C310.90648909 907.05272888 307.07557501 902.45282537 303.28125 897.75 C300.93281032 894.91900422 298.49090098 892.20616402 296 889.5 C291.90648909 885.05272888 288.07557501 880.45282537 284.28125 875.75 C281.93281032 872.91900422 279.49090098 870.20616402 277 867.5 C272.90648909 863.05272888 269.07557501 858.45282537 265.28125 853.75 C262.93281032 850.91900422 260.49090098 848.20616402 258 845.5 C253.90648909 841.05272888 250.07557501 836.45282537 246.28125 831.75 C243.93281032 828.91900422 241.49090098 826.20616402 239 823.5 C234.90648909 819.05272888 231.07557501 814.45282537 227.28125 809.75 C224.93281032 806.91900422 222.49090098 804.20616402 220 801.5 C215.90648909 797.05272888 212.07557501 792.45282537 208.28125 787.75 C205.93281032 784.91900422 203.49090098 782.20616402 201 779.5 C196.90648909 775.05272888 193.07557501 770.45282537 189.28125 765.75 C186.93281032 762.91900422 184.49090098 760.20616402 182 757.5 C177.90648909 753.05272888 174.07557501 748.45282537 170.28125 743.75 C167.93281032 740.91900422 165.49090098 738.20616402 163 735.5 C158.90648909 731.05272888 155.07557501 726.45282537 151.28125 721.75 C148.93281032 718.91900422 146.49090098 716.20616402 144 713.5 C139.90648909 709.05272888 136.07557501 704.45282537 132.28125 699.75 C129.93281032 696.91900422 127.49090098 694.20616402 125 691.5 C120.90648909 687.05272888 117.07557501 682.45282537 113.28125 677.75 C110.93281032 674.91900422 108.49090098 672.20616402 106 669.5 C101.90648909 665.05272888 98.07557501 660.45282537 94.28125 655.75 C91.13805742 651.96094593 87.79841405 648.36730648 84.46484375 644.74609375 C82.07292703 642.08124834 79.80745116 639.35168175 77.5625 636.5625 C74.34056899 632.56776014 70.99344505 628.75445651 67.5 625 C63.21044887 620.38995664 59.19589328 615.62217044 55.24609375 610.71484375 C52.9116941 607.89326505 50.48009402 605.19409288 48 602.5 C43.90648909 598.05272888 40.07557501 593.45282537 36.28125 588.75 C33.93281032 585.91900422 31.49090098 583.20616402 29 580.5 C24.89046793 576.03311732 21.00498357 571.43368185 17.203125 566.703125 C15.44968657 564.5517431 13.67077146 562.43568797 11.86230469 560.33105469 C11.32530945 559.70575867 10.78831421 559.08046265 10.23504639 558.43621826 C9.62369843 557.72529022 9.62369843 557.72529022 9 557 C8.96779109 576.0416575 8.94844582 595.08331969 8.9375 614.125 C8.9370657 614.86083769 8.93663139 615.59667539 8.93618393 616.35481119 C8.90659557 668.05101557 9.13121877 719.74270559 9.5 771.4375 C9.59443155 784.67837204 9.68811601 797.91924796 9.77734375 811.16015625 C9.78276247 811.9632414 9.78818119 812.76632655 9.79376411 813.59374762 C10.12126974 862.39562633 10.10081291 911.19724812 10 960 C4.72 960 -0.56 960 -6 960 C-6.06123364 916.56488815 -5.90584985 873.13379639 -5.62907338 829.699646 C-5.59705036 824.66809404 -5.56574214 819.63653778 -5.53457451 814.60498047 C-5.43076008 797.85793501 -5.32533877 781.11090083 -5.21774632 764.3638792 C-5.21203506 763.47487329 -5.20632379 762.58586737 -5.20043945 761.66992188 C-5.19472053 760.77978047 -5.18900161 759.88963907 -5.1831094 758.97252369 C-5.08997406 744.46000004 -5.00088279 729.94745461 -4.91354198 715.43489504 C-4.82282697 700.36970201 -4.72904211 685.30453069 -4.63215441 670.23937607 C-4.57823335 661.84558892 -4.52549606 653.45179864 -4.4761219 645.0579834 C-4.4342431 637.94204979 -4.38946388 630.82614125 -4.34116179 623.71024823 C-4.316741 620.10113426 -4.29349813 616.49202513 -4.2739563 612.88288116 C-4.17006504 593.90411692 -3.73039262 574.96372879 -3 556 C-3.66 556 -4.32 556 -5 556 C-5.27384521 556.59224365 -5.54769043 557.1844873 -5.82983398 557.79467773 C-6.95817714 559.92117965 -8.13079694 561.49105363 -9.72265625 563.28515625 C-10.52328491 564.19599976 -10.52328491 564.19599976 -11.34008789 565.12524414 C-11.90848389 565.76453857 -12.47687988 566.40383301 -13.0625 567.0625 C-14.25119122 568.41562113 -15.43868682 569.7697935 -16.625 571.125 C-17.49511719 572.11886719 -17.49511719 572.11886719 -18.3828125 573.1328125 C-20.49313899 575.56937304 -22.53442314 578.05722858 -24.5625 580.5625 C-28.927371 585.94876678 -33.43581619 591.20233643 -37.95703125 596.45703125 C-42.21351925 601.40558716 -46.42167006 606.3947854 -50.63232422 611.38232422 C-52.02459417 613.02908979 -53.42005473 614.67310067 -54.81640625 616.31640625 C-59.04853633 621.30026248 -63.25737398 626.29559272 -67.375 631.375 C-71.54156423 636.49733524 -75.86201281 641.47417378 -80.20043945 646.45043945 C-84.12489097 650.96215363 -87.93426783 655.55325555 -91.69921875 660.19921875 C-95.38006413 664.6799762 -99.17513193 669.06159186 -102.95703125 673.45703125 C-105.84230575 676.81142628 -108.70679062 680.18291989 -111.5625 683.5625 C-112.23708252 684.36083252 -112.23708252 684.36083252 -112.92529297 685.17529297 C-113.83068442 686.2471334 -114.73595817 687.31907326 -115.64111328 688.39111328 C-117.46709773 690.55303163 -119.29510325 692.7132358 -121.12329102 694.87329102 C-122.03931879 695.95566254 -122.95517236 697.03818153 -123.87084961 698.12084961 C-126.18456788 700.85636732 -128.50043895 703.59001211 -130.8203125 706.3203125 C-135.05079624 711.30314347 -139.2585368 716.29702715 -143.375 721.375 C-147.54156423 726.49733524 -151.86201281 731.47417378 -156.20043945 736.45043945 C-160.12489097 740.96215363 -163.93426783 745.55325555 -167.69921875 750.19921875 C-171.38006413 754.6799762 -175.17513193 759.06159186 -178.95703125 763.45703125 C-181.84230575 766.81142628 -184.70679062 770.18291989 -187.5625 773.5625 C-188.01222168 774.09472168 -188.46194336 774.62694336 -188.92529297 775.17529297 C-189.83068442 776.2471334 -190.73595817 777.31907326 -191.64111328 778.39111328 C-193.46709773 780.55303163 -195.29510325 782.7132358 -197.12329102 784.87329102 C-198.03931879 785.95566254 -198.95517236 787.03818153 -199.87084961 788.12084961 C-202.18456788 790.85636732 -204.50043895 793.59001211 -206.8203125 796.3203125 C-211.05079624 801.30314347 -215.2585368 806.29702715 -219.375 811.375 C-223.54156423 816.49733524 -227.86201281 821.47417378 -232.20043945 826.45043945 C-236.12489097 830.96215363 -239.93426783 835.55325555 -243.69921875 840.19921875 C-247.38006413 844.6799762 -251.17513193 849.06159186 -254.95703125 853.45703125 C-257.84230575 856.81142628 -260.70679062 860.18291989 -263.5625 863.5625 C-264.01222168 864.09472168 -264.46194336 864.62694336 -264.92529297 865.17529297 C-265.83068442 866.2471334 -266.73595817 867.31907326 -267.64111328 868.39111328 C-269.46709773 870.55303163 -271.29510325 872.7132358 -273.12329102 874.87329102 C-274.03931879 875.95566254 -274.95517236 877.03818153 -275.87084961 878.12084961 C-278.18456788 880.85636732 -280.50043895 883.59001211 -282.8203125 886.3203125 C-287.05079624 891.30314347 -291.2585368 896.29702715 -295.375 901.375 C-299.54156423 906.49733524 -303.86201281 911.47417378 -308.20043945 916.45043945 C-312.12489097 920.96215363 -315.93426783 925.55325555 -319.69921875 930.19921875 C-323.38006413 934.6799762 -327.17513193 939.06159186 -330.95703125 943.45703125 C-333.84230575 946.81142628 -336.70679062 950.18291989 -339.5625 953.5625 C-340.23708252 954.36083252 -340.23708252 954.36083252 -340.92529297 955.17529297 C-341.83068442 956.2471334 -342.73595817 957.31907326 -343.64111328 958.39111328 C-345.46709773 960.55303163 -347.29510325 962.7132358 -349.12329102 964.87329102 C-350.03931879 965.95566254 -350.95517236 967.03818153 -351.87084961 968.12084961 C-354.18456788 970.85636732 -356.50043895 973.59001211 -358.8203125 976.3203125 C-363.05079624 981.30314347 -367.2585368 986.29702715 -371.375 991.375 C-374.99725347 995.82816466 -378.72871424 1000.17345951 -382.5 1004.5 C-387.02229469 1009.68888887 -391.45543997 1014.93268985 -395.7890625 1020.28125 C-398.3557159 1023.43741744 -400.9555555 1026.56460253 -403.5625 1029.6875 C-404.00489014 1030.21754639 -404.44728027 1030.74759277 -404.90307617 1031.29370117 C-405.93497667 1032.52947446 -406.96742501 1033.76479025 -408 1035 C-411.52238047 1033.43632643 -414.27123994 1031.30504111 -417.25 1028.875 C-418.14203125 1028.15054687 -419.0340625 1027.42609375 -419.953125 1026.6796875 C-420.62859375 1026.12539062 -421.3040625 1025.57109375 -422 1025 C-420.58080338 1020.53966777 -418.13383441 1017.67149202 -414.9375 1014.375 C-411.30186276 1010.52522183 -407.8145187 1006.63565625 -404.5 1002.5 C-400.8643595 997.98141824 -397.03163598 993.72016671 -393.08374023 989.47827148 C-390.11284372 986.2670095 -387.30038923 982.97372185 -384.5625 979.5625 C-380.71954521 974.78458662 -376.63168671 970.31005016 -372.44384766 965.83837891 C-368.52093146 961.62570895 -364.88088976 957.23586445 -361.27734375 952.74609375 C-358.78173531 949.73680948 -356.16234857 946.86061346 -353.5 944 C-350.02580757 940.26672745 -346.6993129 936.47628889 -343.5 932.5 C-339.86500611 927.98222187 -336.0328971 923.72181484 -332.0859375 919.48046875 C-329.09558642 916.24788253 -326.26213671 912.93294134 -323.5 909.5 C-319.8643595 904.98141824 -316.03163598 900.72016671 -312.08374023 896.47827148 C-309.11284372 893.2670095 -306.30038923 889.97372185 -303.5625 886.5625 C-299.71954521 881.78458662 -295.63168671 877.31005016 -291.44384766 872.83837891 C-287.52093146 868.62570895 -283.88088976 864.23586445 -280.27734375 859.74609375 C-277.78173531 856.73680948 -275.16234857 853.86061346 -272.5 851 C-269.02580757 847.26672745 -265.6993129 843.47628889 -262.5 839.5 C-258.86500611 834.98222187 -255.0328971 830.72181484 -251.0859375 826.48046875 C-248.09558642 823.24788253 -245.26213671 819.93294134 -242.5 816.5 C-238.8643595 811.98141824 -235.03163598 807.72016671 -231.08374023 803.47827148 C-228.11284372 800.2670095 -225.30038923 796.97372185 -222.5625 793.5625 C-218.71954521 788.78458662 -214.63168671 784.31005016 -210.44384766 779.83837891 C-206.52093146 775.62570895 -202.88088976 771.23586445 -199.27734375 766.74609375 C-196.78173531 763.73680948 -194.16234857 760.86061346 -191.5 758 C-188.02580757 754.26672745 -184.6993129 750.47628889 -181.5 746.5 C-177.8643595 741.98141824 -174.03163598 737.72016671 -170.08374023 733.47827148 C-167.11284372 730.2670095 -164.30038923 726.97372185 -161.5625 723.5625 C-157.71954521 718.78458662 -153.63168671 714.31005016 -149.44384766 709.83837891 C-145.52093146 705.62570895 -141.88088976 701.23586445 -138.27734375 696.74609375 C-135.78173531 693.73680948 -133.16234857 690.86061346 -130.5 688 C-127.02580757 684.26672745 -123.6993129 680.47628889 -120.5 676.5 C-116.86500611 671.98222187 -113.0328971 667.72181484 -109.0859375 663.48046875 C-106.09558642 660.24788253 -103.26213671 656.93294134 -100.5 653.5 C-96.8643595 648.98141824 -93.03163598 644.72016671 -89.08374023 640.47827148 C-86.11284372 637.2670095 -83.30038923 633.97372185 -80.5625 630.5625 C-76.71954521 625.78458662 -72.63168671 621.31005016 -68.44384766 616.83837891 C-64.52093146 612.62570895 -60.88088976 608.23586445 -57.27734375 603.74609375 C-54.78173531 600.73680948 -52.16234857 597.86061346 -49.5 595 C-46.02580757 591.26672745 -42.6993129 587.47628889 -39.5 583.5 C-36.30068278 579.52370574 -32.97415055 575.73331702 -29.5 572 C-25.22063846 567.40096282 -21.20705371 562.65345656 -17.28515625 557.7421875 C-15.62743212 555.75291854 -13.96751274 553.87575885 -12.18359375 552.0078125 C-11.48182007 551.26833374 -11.48182007 551.26833374 -10.76586914 550.51391602 C-9.44542305 549.13598868 -8.10982445 547.77262883 -6.7734375 546.41015625 C-4.83621558 544.23966832 -4.83621558 544.23966832 -4.8984375 542.078125 C-6.57729311 538.91092221 -8.87970576 536.34622898 -11.25 533.6875 C-11.7850415 533.07575928 -12.32008301 532.46401855 -12.87133789 531.83374023 C-14.00478586 530.53815928 -15.14100481 529.24499801 -16.27978516 527.95410156 C-18.47874943 525.45615804 -20.65518128 522.93919498 -22.83105469 520.42114258 C-24.45660067 518.54040069 -26.08524644 516.66238844 -27.71484375 514.78515625 C-31.51994152 510.40143951 -35.32125141 506.01444503 -39.12255859 501.62744141 C-41.84228497 498.48891807 -44.56284279 495.35112349 -47.28515625 492.21484375 C-53.03931838 485.58385692 -58.77467872 478.93765731 -64.48291016 472.26708984 C-70.29086653 465.48447805 -76.14626094 458.74309051 -82 452 C-88.85065749 444.10853046 -95.68844449 436.20701695 -102.48291016 428.26708984 C-108.29086653 421.48447805 -114.14626094 414.74309051 -120 408 C-122.18798999 405.47959136 -124.37555294 402.95881365 -126.5625 400.4375 C-127.09834717 399.81987793 -127.63419434 399.20225586 -128.1862793 398.56591797 C-132.39920119 393.70509927 -136.57870757 388.81628267 -140.75537109 383.92431641 C-143.68262923 380.50609717 -146.65809681 377.14116832 -149.6875 373.8125 C-152.71712868 370.47772886 -155.60608092 367.06712361 -158.4375 363.5625 C-161.51336588 359.75912497 -164.68753166 356.09917348 -168 352.5 C-172.10371016 348.04110009 -175.95878348 343.43999397 -179.74609375 338.7109375 C-182.802572 335.0346881 -186.10239592 331.6074843 -189.4453125 328.19140625 C-191 326 -191 326 -190.7421875 323.71484375 C-190.49726562 323.14894531 -190.25234375 322.58304688 -190 322 C-186.72320785 323.09226405 -186.07691498 323.79929154 -183.9375 326.375 C-181.02257825 329.8137449 -178.04339434 333.17403784 -175 336.5 C-171.54671847 340.28662998 -168.13900949 344.1047632 -164.77734375 347.97265625 C-162.70640513 350.33489173 -160.60487152 352.66795853 -158.5 355 C-155.82951656 357.95869751 -153.17701942 360.92926472 -150.5625 363.9375 C-147.75177475 367.16559512 -144.884201 370.33738443 -142 373.5 C-138.54424587 377.28934126 -135.1347711 381.11083698 -131.76953125 384.98046875 C-128.22423046 389.02665089 -124.60541001 393.00743187 -121 397 C-116.23213025 402.27985576 -111.48487782 407.57291806 -106.8125 412.9375 C-103.9673071 416.1751333 -101.07146164 419.3668629 -98.18359375 422.56640625 C-96.29151315 424.67511146 -94.42094242 426.79919801 -92.5625 428.9375 C-89.75177475 432.16559512 -86.884201 435.33738443 -84 438.5 C-80.54671847 442.28662998 -77.13900949 446.1047632 -73.77734375 449.97265625 C-71.70640513 452.33489173 -69.60487152 454.66795853 -67.5 457 C-64.82951656 459.95869751 -62.17701942 462.92926472 -59.5625 465.9375 C-56.75177475 469.16559512 -53.884201 472.33738443 -51 475.5 C-47.54671847 479.28662998 -44.13900949 483.1047632 -40.77734375 486.97265625 C-38.70640513 489.33489173 -36.60487152 491.66795853 -34.5 494 C-31.82951656 496.95869751 -29.17701942 499.92926472 -26.5625 502.9375 C-23.75177475 506.16559512 -20.884201 509.33738443 -18 512.5 C-6.81818182 524.77272727 -6.81818182 524.77272727 -4 529 C-3.33787531 471.41110239 -2.86202883 413.82191074 -2.5 356.23046875 C-2.48965171 354.587543 -2.47930243 352.94461727 -2.46895218 351.30169153 C-2.3253914 328.49515203 -2.18570191 305.6885892 -2.04687494 282.88202047 C-1.87211135 254.17842668 -1.6951655 225.4748465 -1.51550055 196.77128297 C-1.50003883 194.2991777 -1.48461309 191.8270722 -1.46919632 189.35496664 C-1.07535154 126.23574713 -0.57611572 63.11782924 0 0 Z " fill="#000000" transform="translate(1238,326)"/>
<path d="M0 0 C13.15028829 5.6222247 27.22958674 21.34370327 33 34 C33.6504698 36.43598756 33.88985448 38.46665311 34 41 C29.2447604 42.52328186 25.27859544 43.24670018 20.23852539 43.22705078 C18.93770523 43.22689972 17.63688507 43.22674866 16.29664612 43.22659302 C14.89698123 43.21638281 13.49731795 43.20595087 12.09765625 43.1953125 C10.65034685 43.19157733 9.20303489 43.18873274 7.75572205 43.18673706 C3.96634813 43.17914024 0.17713015 43.15952625 -3.61218262 43.1373291 C-7.48687634 43.11678503 -11.36159551 43.10771712 -15.23632812 43.09765625 C-22.82428945 43.07627617 -30.41212279 43.04218862 -38 43 C-37.96574669 44.11584221 -37.96574669 44.11584221 -37.93080139 45.25422668 C-37.8404192 48.20237708 -37.75028471 51.15053497 -37.66024208 54.09869576 C-37.61837945 55.46712133 -37.57640561 56.83554351 -37.53432274 58.20396233 C-37.27985856 66.47843544 -37.03411181 74.75303119 -36.80761719 83.02832031 C-36.72263064 86.10353327 -36.63693078 89.17872566 -36.55078125 92.25390625 C-36.51882975 93.40007227 -36.51882975 93.40007227 -36.48623276 94.56939316 C-36.24102801 103.25630039 -35.93694472 111.93270298 -35.46482849 120.61088562 C-35.24897392 124.58793373 -35.06661716 128.56615676 -34.88766479 132.54501343 C-34.79649422 134.33643131 -34.68712818 136.1270233 -34.55886841 137.91616821 C-33.60777614 151.25501201 -33.60777614 151.25501201 -36.94921875 155.44311523 C-39.54488932 157.30512892 -42.10875256 158.65092238 -45 160 C-46.46351504 160.93567437 -47.91275363 161.89421736 -49.34375 162.87890625 C-50.72791208 163.77537758 -52.11331498 164.6699362 -53.5 165.5625 C-54.18191406 166.00529297 -54.86382813 166.44808594 -55.56640625 166.90429688 C-60.97824992 170.39923517 -66.46781648 173.68068989 -72 177 C-72 134.1 -72 91.2 -72 47 C-97.40046332 53.85951454 -97.40046332 53.85951454 -119 68 C-119.62003906 68.54140625 -120.24007813 69.0828125 -120.87890625 69.640625 C-130.29383265 78.3438399 -136.33430396 91.21023121 -137.12426758 104.01416016 C-138.22372134 134.69674893 -127.03260725 161.05312513 -106.3515625 183.59765625 C-102.42355764 187.61048514 -98.24679071 191.32949613 -94 195 C-97.63040047 196.21013349 -98.90268411 195.40520139 -102.24194336 193.80297852 C-102.92522705 193.45549561 -103.60851074 193.1080127 -104.3125 192.75 C-105.02092041 192.39156006 -105.72934082 192.03312012 -106.45922852 191.66381836 C-114.04192496 187.67332605 -120.57688072 182.63597231 -127 177 C-127.81984375 176.28199219 -128.6396875 175.56398438 -129.484375 174.82421875 C-149.84005432 155.65956322 -163.14753379 127.33762875 -164.28515625 99.44921875 C-164.32587187 97.50800847 -164.35589322 95.56654321 -164.375 93.625 C-164.38893799 92.72193115 -164.40287598 91.8188623 -164.41723633 90.88842773 C-164.33215114 78.84058565 -160.06237167 68.35355027 -152 59.375 C-125.9538776 35.36284811 -81.23673611 36.94397935 -48.21875 36.7265625 C-47.01356216 36.71795952 -47.01356216 36.71795952 -45.7840271 36.70918274 C-38.3160309 36.6581689 -30.84805014 36.626423 -23.37988281 36.61914062 C-19.23660986 36.61413673 -15.09381111 36.59001007 -10.95069885 36.55381393 C-9.39102518 36.54405241 -7.83128632 36.541664 -6.27159119 36.54698563 C-4.11477703 36.55403378 -1.95941112 36.53684565 0.19726562 36.51416016 C1.41853149 36.51131012 2.63979736 36.50846008 3.89807129 36.50552368 C7.58126622 35.9052706 8.77011069 34.93671427 11 32 C12.57317868 22.24275693 6.22782211 11.2676544 0.91796875 3.5234375 C0 2 0 2 0 0 Z " fill="#000000" transform="translate(1299,1309)"/>
<path d="M0 0 C0.99 0.99 0.99 0.99 2 2 C-1.79044062 6.02330045 -5.74555403 9.67016602 -10.0625 13.125 C-14.56035623 16.7405607 -18.80091338 20.54277254 -23 24.5 C-27.90540871 29.1193926 -32.9350074 33.46050592 -38.19921875 37.671875 C-42.10231362 40.91628858 -45.80290333 44.36256635 -49.49829102 47.84008789 C-52.55966603 50.71321835 -55.68412745 53.42438682 -59 56 C-57.55834523 60.43899351 -55.11234932 63.50325138 -52.0625 66.9375 C-48.07576206 71.53068617 -44.22432206 76.19154309 -40.5 81 C-36.42761084 86.24185474 -32.22070943 91.34247276 -27.91186523 96.39111328 C-24.5864409 100.29169149 -21.33120817 104.23126489 -18.19921875 108.2890625 C-16.45098189 110.44408272 -14.66662645 112.44270446 -12.76953125 114.4609375 C-4.32033696 123.70606162 -4.32033696 123.70606162 -3.5390625 129.30078125 C-3.95481443 132.24275464 -4.58161507 134.99971763 -5.42089844 137.84765625 C-6.63227137 142.34995968 -7.31490536 146.97458901 -8.125 151.5625 C-8.30675781 152.51519775 -8.48851562 153.46789551 -8.67578125 154.44946289 C-8.84722656 155.3543042 -9.01867188 156.25914551 -9.1953125 157.19140625 C-9.42758545 158.40098999 -9.42758545 158.40098999 -9.66455078 159.63500977 C-10.39493037 164.37112321 -10.39493037 164.37112321 -9.02880859 168.82666016 C-8.57328613 169.39175293 -8.11776367 169.9568457 -7.6484375 170.5390625 C-7.13337646 171.19302002 -6.61831543 171.84697754 -6.08764648 172.52075195 C-5.52247314 173.21515381 -4.9572998 173.90955566 -4.375 174.625 C-3.18430943 176.13001827 -1.99558078 177.63659033 -0.80859375 179.14453125 C-0.18581543 179.93166504 0.43696289 180.71879883 1.07861328 181.52978516 C4.9532652 186.51119915 8.63052232 191.64127513 12.32861328 196.75439453 C16.22274191 202.28020045 16.22274191 202.28020045 21 207 C28.33334592 207.124294 34.30728385 204.22711281 39.796875 199.4296875 C43.80309081 195.16564592 45.54953324 190.61101617 47 185 C49.5253413 187.5253413 49.35363183 188.55483725 49.4375 192.0625 C49.29559028 198.08577921 47.89214068 202.36907335 44 207 C37.09806023 212.91232341 30.43527352 215.14916901 21.46484375 215.4609375 C14.82418586 214.2191029 11.23260585 207.5676832 7.5625 202.4375 C6.31389323 200.71868378 5.0651927 198.99993567 3.81640625 197.28125 C3.18234863 196.40339844 2.54829102 195.52554687 1.89501953 194.62109375 C-1.05118111 190.54606024 -4.02166064 186.48908449 -7 182.4375 C-7.57314941 181.65745605 -8.14629883 180.87741211 -8.73681641 180.07373047 C-13.42061901 173.72679101 -18.23808619 167.49089431 -23.09936523 161.27929688 C-27.02312996 156.26556672 -30.87152483 151.20671991 -34.67578125 146.1015625 C-39.17308859 140.10011372 -43.74930844 134.15848006 -48.31054688 128.20556641 C-51.58174227 123.93504918 -54.84806226 119.66080249 -58.11523438 115.38720703 C-60.87202721 111.78159469 -63.63011461 108.1769859 -66.390625 104.57421875 C-72.63924734 96.41627008 -78.85719573 88.23802434 -85 80 C-89.31299312 82.73304882 -92.96109913 85.66444979 -96.6875 89.1875 C-100.47847427 92.73336309 -104.31679357 96.13203149 -108.375 99.375 C-113.41336194 103.42601724 -118.1030476 107.77223557 -122.8059082 112.20043945 C-127.1173025 116.23805697 -131.59512812 119.98744009 -136.20703125 123.6796875 C-140.076576 126.89438621 -143.74033721 130.31175586 -147.41699219 133.7434082 C-151.19450336 137.26835988 -155.03749061 140.68255028 -159 144 C-167.95561983 139.93449378 -172.68106874 129.81861572 -176 121 C-178.6619254 112.6763582 -179.55080433 104.77544221 -179.5 96.0625 C-179.49355469 94.88880859 -179.48710938 93.71511719 -179.48046875 92.50585938 C-178.93079437 65.87558237 -167.97758413 37.1032635 -149 18 C-147.6616469 22.01505929 -148.77205772 23.62556754 -150.25 27.5625 C-158.3879809 50.69417998 -158.75890222 76.37317033 -149.3984375 99.20703125 C-147.20947317 103.57884549 -144.49264269 107.75367866 -140 110 C-135.49039066 110.60986032 -132.85028292 110.24853131 -129.2734375 107.54296875 C-127.95924138 106.44180863 -126.66033961 105.32221016 -125.375 104.1875 C-124.68059814 103.5987207 -123.98619629 103.00994141 -123.27075195 102.40332031 C-121.16790675 100.61634695 -119.08413228 98.80872729 -117 97 C-115.27029738 95.53120999 -113.53487719 94.06943117 -111.79882812 92.6081543 C-110.20155283 91.26184483 -108.61015387 89.90884614 -107.01953125 88.5546875 C-101.51949209 83.90135553 -95.91837366 79.37224526 -90.328125 74.828125 C-85.34402374 70.76593842 -80.40061978 66.66214062 -75.5 62.5 C-70.73078305 58.44999489 -65.92087884 54.45648144 -61.0703125 50.50390625 C-51.49293451 42.69334735 -41.95247043 34.84109042 -32.53613281 26.83691406 C-27.41373861 22.48819803 -22.2127305 18.23958689 -17 14 C-8.47052604 7.03568823 -8.47052604 7.03568823 0 0 Z " fill="#000000" transform="translate(1769,1321)"/>
<path d="M0 0 C4.03805866 1.36266644 6.54368118 3.1409151 9.625 6.0625 C13.08420957 9.26660562 16.58276566 12.34842269 20.25 15.3125 C24.51731033 18.76842033 28.71311775 22.29377899 32.875 25.875 C37.42295883 29.78831665 41.97966422 33.69005233 46.5625 37.5625 C47.09472168 38.01222168 47.62694336 38.46194336 48.17529297 38.92529297 C49.2471334 39.83068442 50.31907326 40.73595817 51.39111328 41.64111328 C54.09572289 43.92546186 56.79772127 46.21289508 59.5 48.5 C60.58332099 49.41668126 61.66665432 50.33334793 62.75 51.25 C82.25 67.75 82.25 67.75 83.87475586 69.125 C84.95863145 70.04198773 86.04277887 70.95865425 87.12719727 71.875 C89.82954999 74.15920389 92.5270155 76.44871561 95.21484375 78.75 C100.92549801 83.6310046 106.6934032 88.43525437 112.5625 93.125 C113.14636475 93.59873047 113.73022949 94.07246094 114.33178711 94.56054688 C118.23417224 97.83938607 118.23417224 97.83938607 123 99 C127.61402642 95.28187928 128.64821897 89.12492768 129.28417969 83.47558594 C129.40111024 80.93409549 129.41622177 78.41876682 129.375 75.875 C129.36629883 74.9670166 129.35759766 74.0590332 129.34863281 73.12353516 C129.10121538 61.57806435 127.13804576 50.75139962 122.671875 40.0390625 C122 38 122 38 123 36 C137.20536151 56.77139527 146.40355563 80.24469042 141.75 105.6875 C140.5366767 111.37676717 138.9565369 116.00447213 136 121 C128.57114846 115.79980393 122.15579122 109.65025621 115.5625 103.45800781 C111.42162586 99.59405463 107.1017452 95.93933229 102.79296875 92.265625 C101.59094165 91.23982254 100.38912454 90.21377399 99.1875 89.1875 C98.58921387 88.67662842 97.99092773 88.16575684 97.37451172 87.6394043 C91.81161183 82.87195553 86.38490692 77.96730189 81 73 C76.85469595 74.54858739 75.02564213 77.25366302 72.4375 80.75 C71.55029752 81.9342073 70.66224739 83.11777992 69.7734375 84.30078125 C69.31678711 84.91260254 68.86013672 85.52442383 68.38964844 86.15478516 C66.15843516 89.1174538 63.86115582 92.02704556 61.5625 94.9375 C60.63531953 96.11450682 59.70823668 97.29159055 58.78125 98.46875 C58.32105469 99.05269531 57.86085938 99.63664062 57.38671875 100.23828125 C56.01582318 101.97989788 54.64800009 103.72387885 53.28125 105.46875 C48.53360064 111.52750857 43.75677768 117.56052556 38.9375 123.5625 C32.54195655 131.53775802 26.26425542 139.59790971 20.16796875 147.8046875 C14.56579133 155.34187626 8.83805974 162.7266884 2.87158203 169.97949219 C-1.54110848 175.36909856 -5.74505443 180.89533028 -9.8671875 186.50976562 C-18.78199156 198.59399719 -18.78199156 198.59399719 -23 200 C-30.48966779 200.74896678 -36.54909933 199.99279537 -43 196 C-46.86559456 192.80668276 -49.21599848 189.69474083 -51 185 C-51.40215934 180.41538356 -51.0088583 177.14327024 -49 173 C-48.67 173 -48.34 173 -48 173 C-47.773125 174.19625 -47.54625 175.3925 -47.3125 176.625 C-45.99777788 181.75694977 -43.60577603 185.13126975 -39.24609375 188.2578125 C-34.27039841 191.1326587 -28.65182479 192.48441075 -23 191 C-19.18288924 187.71967044 -16.19110643 183.8277086 -13.1875 179.8125 C-9.47434708 174.86069426 -5.6020351 170.16188782 -1.3984375 165.609375 C1.50018966 160.20076343 0.049402 154.08765577 -0.75177002 148.23599243 C-1.15151338 145.3113138 -1.51911288 142.38282031 -1.88598633 139.45385742 C-2.08665355 137.94552234 -2.30733106 136.439712 -2.5480957 134.93725586 C-4.46857545 122.74759959 -4.46857545 122.74759959 -2.02279663 118.17172241 C0.84738522 114.26445381 4.3941055 111.20979014 8 108 C9.55652812 106.17569513 11.08381748 104.32545287 12.5625 102.4375 C16.37722613 97.69799178 20.41569432 93.22101003 24.53515625 88.74609375 C26.92707297 86.08124834 29.19254884 83.35168175 31.4375 80.5625 C35.08817578 76.03617711 38.93085309 71.76007262 42.88964844 67.50708008 C47.49717505 62.52700576 51.77041186 57.30526117 56 52 C47.3901648 43.29342507 38.41514757 35.03620382 28.85546875 27.3828125 C24.14647754 23.45328495 19.71863508 19.22526777 15.24609375 15.03125 C8.78233831 8.91957372 8.78233831 8.91957372 1.7890625 3.4453125 C1.19867187 2.96835938 0.60828125 2.49140625 0 2 C0 1.34 0 0.68 0 0 Z " fill="#000000" transform="translate(716,1339)"/>
<path d="M0 0 C0.99 0.33 1.98 0.66 3 1 C3.10022461 1.59014893 3.20044922 2.18029785 3.30371094 2.78833008 C3.768543 5.46638462 4.25893666 8.13913654 4.75 10.8125 C4.90726563 11.74126953 5.06453125 12.67003906 5.2265625 13.62695312 C5.39414063 14.51962891 5.56171875 15.41230469 5.734375 16.33203125 C5.88100586 17.15421143 6.02763672 17.9763916 6.17871094 18.82348633 C7.22814598 21.60461397 8.48831925 22.47222569 11 24 C17.68111526 26.64460812 25.56723183 27.41708967 32.48046875 25.20703125 C36.09719918 23.48760203 37.72722245 22.40916633 40 19 C40.66 19.33 41.32 19.66 42 20 C39.00548154 26.8924112 36.095897 30.9181301 28.9375 33.8125 C21.83328877 35.96744407 14.21684037 35.33953682 7.5 32.1875 C4.47283709 30.56106379 2.20258782 28.64607882 0 26 C-0.45410156 23.15917969 -0.45410156 23.15917969 -0.390625 19.921875 C-0.37773438 18.76171875 -0.36484375 17.6015625 -0.3515625 16.40625 C-0.31804687 15.1996875 -0.28453125 13.993125 -0.25 12.75 C-0.22292969 10.91695312 -0.22292969 10.91695312 -0.1953125 9.046875 C-0.148181 6.03045922 -0.08239413 3.01562509 0 0 Z " fill="#000000" transform="translate(1227,1508)"/>
<path d="M0 0 C1.85546875 2.21875 1.85546875 2.21875 3 4 C2.34644531 4.63615234 2.34644531 4.63615234 1.6796875 5.28515625 C-2.45008483 9.35235627 -6.28041129 13.55463788 -10 18 C-13.22680034 16.89078738 -15.87721123 15.45502712 -18.6875 13.5625 C-28.52688322 7.38088006 -39.50594072 6.61132546 -50.8671875 8.46875 C-60.90678052 11.09593322 -68.47948071 17.18846924 -74.1484375 25.73046875 C-80.62639723 37.15213459 -81.32370229 50.92303792 -78.125 63.41796875 C-74.54093113 74.03328385 -68.69108353 81.41431433 -58.6875 86.5625 C-52.04154152 89.62919718 -46.67468385 90.20714473 -39.4375 90.25 C-38.59380859 90.270625 -37.75011719 90.29125 -36.88085938 90.3125 C-29.73945206 90.35587985 -25.33640228 89.00083699 -18 87 C-17.67 77.43 -17.34 67.86 -17 58 C-24.92 58 -32.84 58 -41 58 C-41 52.39 -41 46.78 -41 41 C-26.48 41 -11.96 41 3 41 C3 60.8 3 80.6 3 101 C-9.21559194 106.08982998 -19.86352671 109.39370123 -33 110 C-33.99386719 110.05285156 -34.98773437 110.10570312 -36.01171875 110.16015625 C-55.427466 110.70943323 -72.7716863 105.15187763 -87.21875 91.9765625 C-99.28343437 79.49425444 -103.51291727 63.35682934 -103.34960938 46.4309082 C-102.90361737 30.46409305 -97.69233088 16.91174253 -86.49609375 5.28125 C-63.7478799 -15.50897988 -25.32507416 -17.52387529 0 0 Z " fill="#000000" transform="translate(910,1599)"/>
<path d="M0 0 C24.75 0 49.5 0 75 0 C75 5.61 75 11.22 75 17 C74 18 74 18 71.86766052 18.12025452 C70.92834183 18.11803391 69.98902313 18.11581329 69.02124023 18.11352539 C67.96021591 18.11344986 66.89919159 18.11337433 65.80601501 18.11329651 C64.651866 18.10813522 63.49771698 18.10297394 62.30859375 18.09765625 C61.13361832 18.0962413 59.95864288 18.09482635 58.74806213 18.09336853 C54.97784936 18.08774992 51.20769496 18.07519426 47.4375 18.0625 C44.88867273 18.0574874 42.33984453 18.05292408 39.79101562 18.04882812 C33.52730291 18.03862331 27.26371716 18.01905152 21 18 C21 28.23 21 38.46 21 49 C37.5 49 54 49 71 49 C71 54.61 71 60.22 71 66 C54.5 66 38 66 21 66 C21 82.17 21 98.34 21 115 C14.07 115 7.14 115 0 115 C0 77.05 0 39.1 0 0 Z " fill="#000000" transform="translate(547,1591)"/>
<path d="M0 0 C5.22086617 0.205887 10.44365056 0.29620256 15.66741943 0.39672852 C25.88800003 0.6102225 36.09997638 0.95076666 46.31390381 1.37329102 C46.34074693 4.18585383 46.36066568 6.99816343 46.37640381 9.81079102 C46.38478271 10.61323242 46.39316162 11.41567383 46.40179443 12.24243164 C46.41041811 14.28624322 46.36618531 16.33013003 46.31390381 18.37329102 C45.31390381 19.37329102 45.31390381 19.37329102 43.18156433 19.49354553 C42.24224564 19.49132492 41.30292694 19.48910431 40.33514404 19.48681641 C39.27411972 19.48674088 38.2130954 19.48666534 37.11991882 19.48658752 C35.96576981 19.48142624 34.81162079 19.47626495 33.62249756 19.47094727 C32.44752213 19.46953232 31.27254669 19.46811737 30.06196594 19.46665955 C26.29175317 19.46104094 22.52159877 19.44848527 18.75140381 19.43579102 C16.20257654 19.43077841 13.65374834 19.42621509 11.10491943 19.42211914 C4.84120672 19.41191433 -1.42237903 19.39234254 -7.68609619 19.37329102 C-7.35609619 28.61329102 -7.02609619 37.85329102 -6.68609619 47.37329102 C18.06390381 47.86829102 18.06390381 47.86829102 43.31390381 48.37329102 C43.31390381 53.98329102 43.31390381 59.59329102 43.31390381 65.37329102 C26.81390381 65.70329102 10.31390381 66.03329102 -6.68609619 66.37329102 C-6.68609619 76.60329102 -6.68609619 86.83329102 -6.68609619 97.37329102 C11.79390381 97.70329102 30.27390381 98.03329102 49.31390381 98.37329102 C49.31390381 104.31329102 49.31390381 110.25329102 49.31390381 116.37329102 C23.90390381 116.37329102 -1.50609619 116.37329102 -27.68609619 116.37329102 C-27.68609619 106.47329102 -27.68609619 96.57329102 -27.68609619 86.37329102 C-51.308952 83.22778292 -51.308952 83.22778292 -73.69073486 88.63378906 C-81.50131763 95.48415356 -85.20917901 105.86722373 -88.68609619 115.37329102 C-89.68609619 116.37329102 -89.68609619 116.37329102 -92.09454346 116.48681641 C-93.13666992 116.48157959 -94.17879639 116.47634277 -95.25250244 116.47094727 C-96.37720947 116.46772461 -97.5019165 116.46450195 -98.66070557 116.46118164 C-99.84470947 116.45280273 -101.02871338 116.44442383 -102.24859619 116.43579102 C-103.43646729 116.4312793 -104.62433838 116.42676758 -105.84820557 116.42211914 C-108.79421845 116.41028776 -111.740133 116.39380388 -114.68609619 116.37329102 C-111.09421474 109.4429679 -107.13824131 102.91981363 -102.769104 96.46435547 C-99.4386419 91.53270967 -96.22537943 86.53801937 -93.06109619 81.49829102 C-86.35775543 70.83100794 -79.56235047 60.22368277 -72.76373291 49.61694336 C-70.69517263 46.38746136 -68.62959185 43.15609403 -66.56500244 39.92407227 C-65.88341064 38.85753418 -65.20181885 37.79099609 -64.49957275 36.69213867 C-63.23404326 34.71169928 -61.96900565 32.73094542 -60.70465088 30.74975586 C-59.45334647 28.79252688 -58.15710857 26.8635624 -56.82598877 24.9597168 C-54.98583029 22.15618275 -53.95625917 19.37513577 -52.88018799 16.20483398 C-44.06014944 -6.04860265 -20.02249688 -0.87298826 0 0 Z M-30.68609619 19.37329102 C-32.29657694 21.26835705 -32.29657694 21.26835705 -33.76812744 23.81469727 C-34.36423828 24.78068848 -34.96034912 25.74667969 -35.57452393 26.74194336 C-36.20946777 27.79591309 -36.84441162 28.84988281 -37.49859619 29.93579102 C-38.15352051 31.00522949 -38.80844482 32.07466797 -39.48321533 33.17651367 C-40.85990596 35.42742181 -42.2324768 37.68032303 -43.59918213 39.93725586 C-45.6430401 43.30922713 -47.71360979 46.66432761 -49.78765869 50.01782227 C-51.06685843 52.09430406 -52.34552497 54.17111443 -53.62359619 56.24829102 C-54.23243652 57.23385986 -54.84127686 58.21942871 -55.46856689 59.23486328 C-56.02375 60.14421631 -56.57893311 61.05356934 -57.15093994 61.99047852 C-57.64199219 62.7908252 -58.13304443 63.59117188 -58.63897705 64.41577148 C-59.84332223 66.29721683 -59.84332223 66.29721683 -59.68609619 68.37329102 C-49.12609619 68.37329102 -38.56609619 68.37329102 -27.68609619 68.37329102 C-27.68609619 52.20329102 -27.68609619 36.03329102 -27.68609619 19.37329102 C-28.67609619 19.37329102 -29.66609619 19.37329102 -30.68609619 19.37329102 Z " fill="#000000" transform="translate(732.6860961914063,1589.626708984375)"/>
<path d="M0 0 C30.03 0 60.06 0 91 0 C91 5.94 91 11.88 91 18 C79.45 18 67.9 18 56 18 C56 50.01 56 82.02 56 115 C49.07 115 42.14 115 35 115 C35 82.99 35 50.98 35 18 C23.45 18 11.9 18 0 18 C0 12.06 0 6.12 0 0 Z " fill="#000000" transform="translate(929,1591)"/>
<path d="M0 0 C25.08 0 50.16 0 76 0 C76 5.94 76 11.88 76 18 C57.52 18 39.04 18 20 18 C20.33 27.24 20.66 36.48 21 46 C38.16 46.33 55.32 46.66 73 47 C73 52.61 73 58.22 73 64 C55.84 64.33 38.68 64.66 21 65 C21 75.23 21 85.46 21 96 C40.14 96.33 59.28 96.66 79 97 C79 102.94 79 108.88 79 115 C52.93 115 26.86 115 0 115 C0 77.05 0 39.1 0 0 Z " fill="#000000" transform="translate(1044,1591)"/>
<path d="M0 0 C6.6 0 13.2 0 20 0 C20.33 15.84 20.66 31.68 21 48 C24.980625 44.04 28.96125 40.08 33.0625 36 C34.92467163 34.15148438 34.92467163 34.15148438 36.82446289 32.265625 C43.64244417 25.47811364 50.28578869 18.71722912 55.98046875 10.9375 C60.30553202 5.41781102 64.29044305 0.73081442 71.42773438 -0.67529297 C79.64428676 -1.30545535 87.81285209 -0.83559816 96 0 C90.94044604 6.16250171 85.37581637 11.77695405 79.73291016 17.39746094 C78.13198611 18.99303722 76.53646316 20.5938734 74.94140625 22.1953125 C70.04182044 27.0978035 65.099195 31.88884177 59.82763672 36.39501953 C56.56898031 39.25668227 53.54397023 42.35107096 50.5 45.4375 C49.86835937 46.07365234 49.23671875 46.70980469 48.5859375 47.36523438 C47.05494226 48.90782806 45.52712333 50.45357314 44 52 C45.62084653 55.44401787 47.42536245 57.60671518 50.1875 60.25 C53.71306912 63.63355845 56.93175911 67.18333623 60.12817383 70.87207031 C63.24555582 74.41597294 66.50112141 77.82702489 69.75 81.25 C75.34312619 87.16777615 80.89802621 93.11455155 86.3828125 99.1328125 C88.28665983 101.21851988 90.1974429 103.2962261 92.1171875 105.3671875 C92.63047607 105.92237061 93.14376465 106.47755371 93.67260742 107.04956055 C94.66307469 108.12047834 95.65535274 109.18972495 96.6496582 110.25708008 C100 113.88769263 100 113.88769263 100 115 C73.04864086 117.2494961 73.04864086 117.2494961 66.71875 112.4921875 C64.0792152 109.86843165 62.01814785 106.91018771 60.08398438 103.73974609 C58.45737401 101.12910973 56.48248001 98.84639679 54.5 96.5 C53.43265625 95.1696875 53.43265625 95.1696875 52.34375 93.8125 C49.66791401 90.60149681 46.85635999 87.54976869 44 84.5 C39.56599414 79.76424705 35.36355376 74.91342141 31.328125 69.828125 C28.00146809 65.78701829 24.47743478 61.91211413 21 58 C20.67 76.81 20.34 95.62 20 115 C13.4 115 6.8 115 0 115 C0 77.05 0 39.1 0 0 Z " fill="#000000" transform="translate(1154,1591)"/>
<path d="M0 0 C6.93 0 13.86 0 21 0 C21 32.01 21 64.02 21 97 C37.17 97 53.34 97 70 97 C70 102.94 70 108.88 70 115 C46.9 115 23.8 115 0 115 C0 77.05 0 39.1 0 0 Z " fill="#000000" transform="translate(1276,1591)"/>
<path d="M0 0 C6.93 0 13.86 0 21 0 C21.0093457 2.34077637 21.01869141 4.68155273 21.02832031 7.09326172 C21.06219824 14.85661273 21.1178069 22.61970095 21.18390274 30.38284111 C21.22328902 35.08629559 21.2555207 39.78956532 21.27099609 44.49316406 C21.28622124 49.03863751 21.32076975 53.58360277 21.36830902 58.12884903 C21.38306269 59.85659474 21.39103754 61.58441303 21.39188385 63.31222153 C21.40220525 73.82511193 21.49710906 83.24630602 28.25 91.875 C36.43251773 98.19785461 43.59653261 99.27165671 54 98 C59.89820298 96.15728358 64.82794597 93.45593294 68 88 C70.42824408 82.35355934 71.44456814 77.86048385 71.43237305 71.74804688 C71.4425647 70.96659302 71.45275635 70.18513916 71.46325684 69.38000488 C71.49317763 66.82617835 71.50262035 64.27272814 71.51171875 61.71875 C71.52858101 59.93655166 71.54673332 58.15436509 71.56611633 56.37219238 C71.61345462 51.70340659 71.64336831 47.03466859 71.66955566 42.36572266 C71.69944311 37.59267748 71.74594519 32.81979668 71.79101562 28.046875 C71.87686475 18.69798412 71.9427541 9.34910982 72 0 C78.93 0 85.86 0 93 0 C93.06800409 10.24071898 93.12294723 20.48128591 93.15543652 30.72218037 C93.17103633 35.47836567 93.19216975 40.23438735 93.22631836 44.99047852 C93.25911584 49.58759844 93.27689567 54.18456181 93.28463173 58.78178978 C93.29013887 60.52831674 93.30089215 62.27483595 93.31719017 64.02129555 C93.46211258 80.20695284 91.45480665 93.82408067 79.984375 106.15234375 C71.19242579 114.33854843 58.75917894 117.9864503 46.875 118.4375 C33.96701147 117.78558139 21.43620494 114.08279431 11.8828125 105.12890625 C0.20556957 91.92538468 -0.45395645 76.36569816 -0.29296875 59.66796875 C-0.28735946 57.93777335 -0.28309568 56.20757312 -0.28010559 54.47737122 C-0.26876157 49.96795018 -0.23938699 45.45882837 -0.20599365 40.94952393 C-0.17506492 36.33032273 -0.16155199 31.71107222 -0.14648438 27.09179688 C-0.11450501 18.06104665 -0.06182516 9.03059525 0 0 Z " fill="#000000" transform="translate(1365,1591)"/>
<path d="M0 0 C62.8362069 0 62.8362069 0 73 9 C79.83723583 17.27362991 80.86009446 24.39216837 80 35 C77.98495171 43.56074657 72.13130491 48.33186558 65 52.9375 C64.34 53.288125 63.68 53.63875 63 54 C63.6290625 54.20753906 64.258125 54.41507813 64.90625 54.62890625 C72.21922026 57.261135 78.17790824 60.47189797 82.3828125 67.21875 C86.3635935 75.79273985 86.26952566 85.05435353 83.3125 93.9375 C79.71224008 102.53327628 74.2098585 106.96079742 66 111 C45.51370598 118.97204202 20.25904205 115 0 115 C0 77.05 0 39.1 0 0 Z M20 17 C19.97534254 21.1117256 19.95716041 25.22342278 19.94506836 29.33520508 C19.9400292 30.73495228 19.93319784 32.1346942 19.92456055 33.53442383 C19.9124768 35.54245777 19.90730193 37.55052957 19.90234375 39.55859375 C19.89710693 40.76829834 19.89187012 41.97800293 19.88647461 43.22436523 C19.68224715 45.90812017 19.68224715 45.90812017 21 47 C38.89985771 48.29999956 38.89985771 48.29999956 55 42 C58.40230635 38.69220216 59.73271956 35.83834077 60.09375 31.0546875 C59.92995177 27.46477637 58.8238423 25.05934837 57 22 C51.55579222 17.59830009 47.54372779 16.87007676 40.703125 16.90234375 C38.89521484 16.90717773 38.89521484 16.90717773 37.05078125 16.91210938 C35.16939453 16.92467773 35.16939453 16.92467773 33.25 16.9375 C31.98027344 16.94201172 30.71054688 16.94652344 29.40234375 16.95117188 C26.26818164 16.96295444 23.13411459 16.97940584 20 17 Z M20 65 C19.8992188 67.36398468 19.86026785 69.69811311 19.8671875 72.0625 C19.86623077 72.76898682 19.86527405 73.47547363 19.86428833 74.20336914 C19.86360667 75.69970793 19.86545995 77.19604967 19.86962891 78.69238281 C19.87497743 80.99030157 19.86968349 83.28802486 19.86328125 85.5859375 C19.86394203 87.03645877 19.8652232 88.48697991 19.8671875 89.9375 C19.86516327 90.6291626 19.86313904 91.3208252 19.86105347 92.03344727 C19.59769267 95.29735638 19.59769267 95.29735638 21 98 C34.41378211 99.10773079 49.88369184 99.33076956 61.25 91.4375 C64.44146175 86.99224971 65.39204145 81.89750173 64.66015625 76.48828125 C63.55329718 72.52585675 62.42192568 70.39178813 59.375 67.5625 C50.99984359 63.68511277 42.60260766 63.71641692 33.5 63.8125 C32.30890625 63.81314453 31.1178125 63.81378906 29.890625 63.81445312 C24.58366995 63.3287489 24.58366995 63.3287489 20 65 Z " fill="#000000" transform="translate(1493,1591)"/>
<path d="M0 0 C62.33489461 0 62.33489461 0 73 9 C78.9695744 15.33357283 80.51578169 22.6108417 80.3046875 31.16015625 C79.56731759 38.03282194 77.24619522 43.25778713 72.125 47.9375 C68.92269304 50.48015572 65.75753287 52.40304853 62 54 C63.06927734 54.32871094 63.06927734 54.32871094 64.16015625 54.6640625 C72.33570615 57.37090675 78.28677155 60.29771564 82.375 68.125 C86.20104172 76.40921206 86.15545389 85.92056054 83.2265625 94.515625 C78.89541692 103.28826382 71.93235667 108.57246779 63 112 C48 115 48 115 0 115 C0 77.05 0 39.1 0 0 Z M20 17 C19.97534254 21.1117256 19.95716041 25.22342278 19.94506836 29.33520508 C19.9400292 30.73495228 19.93319784 32.1346942 19.92456055 33.53442383 C19.9124768 35.54245777 19.90730193 37.55052957 19.90234375 39.55859375 C19.89710693 40.76829834 19.89187012 41.97800293 19.88647461 43.22436523 C19.68224715 45.90812017 19.68224715 45.90812017 21 47 C39.58116527 48.23565299 39.58116527 48.23565299 56 41 C59.29974175 37.70025825 59.76592013 34.60357075 60 30 C59.30289557 25.88708384 58.67112335 23.68976566 55.75 20.6875 C50.75697376 17.62359754 46.32277063 16.74930695 40.5078125 16.8046875 C39.30898437 16.81113281 38.11015625 16.81757812 36.875 16.82421875 C35.01875 16.84935547 35.01875 16.84935547 33.125 16.875 C31.86429688 16.88402344 30.60359375 16.89304687 29.3046875 16.90234375 C26.2029296 16.92584192 23.10156348 16.95869666 20 17 Z M20 65 C19.8992188 67.36398468 19.86026785 69.69811311 19.8671875 72.0625 C19.86623077 72.76898682 19.86527405 73.47547363 19.86428833 74.20336914 C19.86360667 75.69970793 19.86545995 77.19604967 19.86962891 78.69238281 C19.87497743 80.99030157 19.86968349 83.28802486 19.86328125 85.5859375 C19.86394203 87.03645877 19.8652232 88.48697991 19.8671875 89.9375 C19.86516327 90.6291626 19.86313904 91.3208252 19.86105347 92.03344727 C19.59769267 95.29735638 19.59769267 95.29735638 21 98 C33.515104 99.03351657 49.55184079 99.83611941 60 92 C63.63372684 88.27310068 64.34109636 85.11598479 64.625 80.0625 C64.44914099 74.81929613 63.41819097 71.90672057 59.64453125 68.265625 C54.20310153 64.07792137 47.40594026 63.87431485 40.76171875 63.8671875 C39.61251953 63.86589844 38.46332031 63.86460938 37.27929688 63.86328125 C36.09400391 63.86714844 34.90871094 63.87101562 33.6875 63.875 C32.48287109 63.87113281 31.27824219 63.86726563 30.03710938 63.86328125 C28.32297852 63.86521484 28.32297852 63.86521484 26.57421875 63.8671875 C25.52838623 63.86831543 24.48255371 63.86944336 23.4050293 63.87060547 C21.04848348 63.72881751 21.04848348 63.72881751 20 65 Z " fill="#000000" transform="translate(1609,1591)"/>
<path d="M0 0 C25.08 0 50.16 0 76 0 C76 5.94 76 11.88 76 18 C57.52 18 39.04 18 20 18 C20 27.57 20 37.14 20 47 C37.49 47 54.98 47 73 47 C73 52.61 73 58.22 73 64 C55.51 64 38.02 64 20 64 C20.33 74.56 20.66 85.12 21 96 C40.14 96.33 59.28 96.66 79 97 C79 102.94 79 108.88 79 115 C52.93 115 26.86 115 0 115 C0 77.05 0 39.1 0 0 Z " fill="#000000" transform="translate(1725,1591)"/>
<path d="M0 0 C8.91 0 17.82 0 27 0 C31.43002406 6.3286058 35.61397726 12.49671054 39.5 19.125 C44.04809295 26.79211839 48.7002207 34.38582679 53.4375 41.9375 C54.0651123 42.93797363 54.69272461 43.93844727 55.33935547 44.96923828 C56.60204196 46.98193913 57.86473723 48.99463447 59.12744141 51.00732422 C62.67371882 56.67489508 66.18673288 62.36304003 69.70092773 68.05053711 C70.19407471 68.84854736 70.68722168 69.64655762 71.1953125 70.46875 C71.89575684 71.60570312 71.89575684 71.60570312 72.61035156 72.765625 C73.55414309 74.28311974 74.50967971 75.79335982 75.47558594 77.296875 C75.93481445 78.01359375 76.39404297 78.7303125 76.8671875 79.46875 C77.2782373 80.10232422 77.68928711 80.73589844 78.11279297 81.38867188 C79 83 79 83 79 85 C79.66 85 80.32 85 81 85 C81 56.95 81 28.9 81 0 C87.6 0 94.2 0 101 0 C101 37.95 101 75.9 101 115 C92.42 115 83.84 115 75 115 C68.25664677 104.88497016 68.25664677 104.88497016 65.80859375 100.828125 C65.26332031 99.92771484 64.71804688 99.02730469 64.15625 98.09960938 C63.5890625 97.15923828 63.021875 96.21886719 62.4375 95.25 C57.82921069 87.64289822 53.19347152 80.0548518 48.5 72.5 C43.25680498 64.05777195 38.07604094 55.57896963 32.93164062 47.07617188 C29.03911896 40.65651962 25.03306096 34.33766722 21 28 C20.67 56.71 20.34 85.42 20 115 C13.4 115 6.8 115 0 115 C0 77.05 0 39.1 0 0 Z " fill="#000000" transform="translate(1835,1591)"/>
<path d="M0 0 C46.53 0 93.06 0 141 0 C141 11.88 141 23.76 141 36 C124.83 36 108.66 36 92 36 C92.00523682 40.17519287 92.01047363 44.35038574 92.01586914 48.65209961 C92.03240109 62.41042569 92.04352046 76.1687516 92.05181217 89.92708492 C92.0569753 98.27292829 92.06401831 106.61876227 92.07543945 114.96459961 C92.08538579 122.2361877 92.09185331 129.50776899 92.09408849 136.77936369 C92.09539569 140.63199521 92.09848208 144.48460728 92.10573006 148.33723259 C92.11248948 151.95932672 92.11461712 155.58139328 92.11310768 159.20349312 C92.11351637 161.17497228 92.11891197 163.14644841 92.12442017 165.11791992 C92.1230455 166.28044785 92.12167084 167.44297577 92.12025452 168.64073181 C92.12117631 169.65746947 92.1220981 170.67420713 92.12304783 171.72175503 C92 174 92 174 91 175 C87.98191937 175.101137 84.98719487 175.13968909 81.96875 175.1328125 C81.06249878 175.13376923 80.15624756 175.13472595 79.22253418 175.13571167 C77.30248953 175.13639353 75.38244259 175.13453882 73.46240234 175.13037109 C70.51264296 175.12502292 67.56303586 175.13031588 64.61328125 175.13671875 C62.75260383 175.13605797 60.8919265 175.13477681 59.03125 175.1328125 C57.69846008 175.13584885 57.69846008 175.13584885 56.33874512 175.13894653 C50.11494988 175.11494988 50.11494988 175.11494988 49 174 C48.90363162 172.21572813 48.87812547 170.42760347 48.87974548 168.64073181 C48.87837082 167.47820389 48.87699615 166.31567596 48.87557983 165.11791992 C48.88097275 163.18770996 48.88097275 163.18770996 48.88647461 161.21850586 C48.88675648 159.85876976 48.88659875 158.4990335 48.8860321 157.13929749 C48.88574413 153.43698222 48.89164088 149.73469908 48.89860606 146.03239131 C48.90483957 142.16731219 48.9054434 138.30223242 48.90663147 134.43714905 C48.90974479 127.11315318 48.9179582 119.78917216 48.92798096 112.46518284 C48.93914206 104.12916552 48.94465254 95.79314751 48.94967639 87.45712459 C48.96014081 70.30473965 48.9784863 53.15237518 49 36 C32.83 36 16.66 36 0 36 C0 24.12 0 12.24 0 0 Z " fill="#000000" transform="translate(438,1754)"/>
<path d="M0 0 C101.88392857 0 101.88392857 0 121.1875 17.625 C132.06346926 28.95684821 133.59681506 42.94981441 133.3125 57.84375 C132.77163521 70.2836401 127.06094866 80.77514248 118.12109375 89.296875 C112.09449857 94.13590907 105.75431373 98.1012831 98 99 C101.27218775 105.82871733 104.89305824 112.2896571 108.9375 118.6875 C110.0919316 120.53336297 111.24554853 122.37973564 112.3984375 124.2265625 C112.99108398 125.1743457 113.58373047 126.12212891 114.19433594 127.09863281 C118.94999058 134.74008762 123.60328494 142.44485652 128.26708984 150.14257812 C130.02436814 153.04018099 131.78758293 155.93412167 133.55078125 158.828125 C134.65920226 160.65603897 135.76728992 162.48415512 136.875 164.3125 C137.39328369 165.16078369 137.91156738 166.00906738 138.44555664 166.88305664 C138.91469482 167.66028076 139.38383301 168.43750488 139.8671875 169.23828125 C140.48762939 170.259823 140.48762939 170.259823 141.12060547 171.30200195 C142 173 142 173 142 175 C125.83 175 109.66 175 93 175 C90.1846875 169.7715625 90.1846875 169.7715625 87.3125 164.4375 C82.25732851 155.07946813 77.13713334 145.76190442 71.80566406 136.55786133 C68.99918543 131.68444911 66.38950497 126.79935029 64.0078125 121.703125 C63.51224854 120.68428223 63.01668457 119.66543945 62.50610352 118.61572266 C61.57086934 116.67819203 60.67754187 114.71963977 59.83569336 112.73974609 C58.45617107 109.66343489 58.45617107 109.66343489 55 106 C48.07 105.505 48.07 105.505 41 105 C41 128.1 41 151.2 41 175 C27.47 175 13.94 175 0 175 C0 117.25 0 59.5 0 0 Z M41 34 C41 47.53 41 61.06 41 75 C66.32966565 76.34486227 66.32966565 76.34486227 88.4375 65.875 C91.60128605 60.05363366 92.83364641 53.64890451 91.0625 47.1875 C88.83853516 41.7822985 85.29819496 38.4902717 79.99487305 36.09399414 C71.99316683 33.41976041 64.2153651 33.66336065 55.875 33.8125 C48.511875 33.9053125 48.511875 33.9053125 41 34 Z " fill="#000000" transform="translate(612,1754)"/>
<path d="M0 0 C38.61 0 77.22 0 117 0 C117 11.55 117 23.1 117 35 C91.92 35 66.84 35 41 35 C41 45.89 41 56.78 41 68 C64.76 68 88.52 68 113 68 C113 79.22 113 90.44 113 102 C89.24 102 65.48 102 41 102 C41 114.21 41 126.42 41 139 C67.73 139 94.46 139 122 139 C122 150.88 122 162.76 122 175 C81.74 175 41.48 175 0 175 C0 117.25 0 59.5 0 0 Z " fill="#000000" transform="translate(789,1754)"/>
<path d="M0 0 C13.53 0 27.06 0 41 0 C41 23.1 41 46.2 41 70 C44.80401833 66.95678534 47.12068295 64.8253723 50 61.125 C53.65381886 56.55772642 57.48695252 52.25369083 61.5 48 C65.32247175 43.94164093 69.01441319 39.85698351 72.5 35.5 C76.49791772 30.50260285 80.80040753 25.86499334 85.18554688 21.21118164 C89.348748 16.76785936 93.22726044 12.18458589 97 7.40234375 C97.66 6.60957031 98.32 5.81679687 99 5 C99.61705811 4.13552246 100.23411621 3.27104492 100.86987305 2.38037109 C105.67329939 -1.27249583 110.21077603 -0.62195183 116.08203125 -0.48828125 C117.25134689 -0.48120651 118.42066254 -0.47413177 119.62541199 -0.46684265 C123.3550958 -0.43888494 127.08327097 -0.37613872 130.8125 -0.3125 C133.34307726 -0.28741915 135.87367808 -0.26460561 138.40429688 -0.24414062 C144.60337813 -0.18905346 150.80158128 -0.10541122 157 0 C156.05175863 1.10980488 155.10301047 2.21917675 154.15405273 3.32836914 C153.62577377 3.94619766 153.09749481 4.56402618 152.5532074 5.20057678 C144.33777549 14.71832628 135.55240222 23.77096074 126.94384766 32.93115234 C123.77278576 36.3061308 120.60496461 39.68414567 117.4375 43.0625 C116.5081665 44.0537085 116.5081665 44.0537085 115.56005859 45.06494141 C104.67381096 56.67940419 93.82570191 68.32910209 83 80 C86.88909849 85.45998925 91.14163143 90.43574207 95.66015625 95.3828125 C97.93628354 97.92873117 100.10294711 100.5322456 102.25 103.1875 C105.90846134 107.70940939 109.67692716 112.11778899 113.5 116.5 C117.97547523 121.6321607 122.34007551 126.83185799 126.625 132.125 C129.52496065 135.63547868 132.50764252 139.06827142 135.5 142.5 C140.00331373 147.66606068 144.41255536 152.88931427 148.72265625 158.21875 C151.93843964 162.14608752 155.2360645 166.00306753 158.54736328 169.85009766 C162 173.89157532 162 173.89157532 162 175 C154.33267478 175.25447919 146.66644517 175.42904993 138.99584961 175.54931641 C136.3893159 175.59947006 133.78306164 175.6676131 131.17749023 175.75439453 C127.42101061 175.87633487 123.66826024 175.93254504 119.91015625 175.9765625 C118.75354996 176.02817535 117.59694366 176.07978821 116.4052887 176.13296509 C111.42374122 176.13638421 108.26481441 176.01593293 104.29615784 172.82820129 C102.01240432 170.31342209 99.9802465 167.75746037 98 165 C97.0731636 163.84950639 96.14279086 162.70184141 95.20703125 161.55859375 C94.41683594 160.52863281 93.62664062 159.49867188 92.8125 158.4375 C88.63738417 153.04288991 84.35376846 147.75136734 80 142.5 C75.31110092 136.83949871 70.70852836 131.12636703 66.19677734 125.32397461 C61.86234888 119.7726271 57.37342868 114.35150361 52.85742188 108.94726562 C50.17972388 105.72599803 47.6051168 102.49748991 45.2109375 99.05859375 C43.34427177 95.97926823 43.34427177 95.97926823 41 95 C41 121.4 41 147.8 41 175 C27.47 175 13.94 175 0 175 C0 117.25 0 59.5 0 0 Z " fill="#000000" transform="translate(952,1754)"/>
<path d="M0 0 C13.86 0 27.72 0 42 0 C44.70518551 5.41037101 47.22611069 10.73086742 49.51171875 16.30859375 C49.83690994 17.09520889 50.16210114 17.88182404 50.49714661 18.692276 C51.56330781 21.2729081 52.62537353 23.85520501 53.6875 26.4375 C54.44369751 28.26966043 55.20021383 30.1016893 55.95703125 31.93359375 C57.52776363 35.73630874 59.09712811 39.53958388 60.66552734 43.34326172 C63.91631567 51.22413916 67.18377632 59.09809144 70.45114136 66.97210693 C72.21555685 71.22459008 73.97884338 75.47754126 75.7421875 79.73046875 C76.09246506 80.57522766 76.44274261 81.41998657 76.80363464 82.29034424 C78.94925021 87.46506233 81.09417139 92.64006772 83.23860168 97.8152771 C85.03385218 102.1477741 86.82935963 106.48016458 88.625 110.8125 C88.97386261 111.65421753 89.32272522 112.49593506 89.68215942 113.36315918 C95.55534254 127.53195965 101.44842214 141.69241216 107.35595703 155.84692383 C107.80439217 156.92188866 107.80439217 156.92188866 108.2618866 158.01856995 C108.81439369 159.34295227 109.36719533 160.66721177 109.92036438 161.99131775 C110.61630895 163.65974124 111.30830631 165.3298097 112 167 C112.38937744 167.90588867 112.77875488 168.81177734 113.17993164 169.74511719 C114 172 114 172 114 175 C98.82 175 83.64 175 68 175 C62.36814087 163.73628174 62.36814087 163.73628174 60.54296875 159.0625 C60.15302734 158.06605469 59.76308594 157.06960938 59.36132812 156.04296875 C58.97396484 155.03878906 58.58660156 154.03460937 58.1875 153 C57.78080078 151.96488281 57.37410156 150.92976563 56.95507812 149.86328125 C54 142.26450893 54 142.26450893 54 140 C31.89 140.33 9.78 140.66 -13 141 C-19.15936545 156.34220997 -19.15936545 156.34220997 -25.08984375 171.76171875 C-26 174 -26 174 -27 175 C-28.41225046 175.0928726 -29.82908934 175.11746772 -31.24438477 175.11352539 C-32.14524307 175.11344986 -33.04610138 175.11337433 -33.97425842 175.11329651 C-34.95341721 175.10813522 -35.93257599 175.10297394 -36.94140625 175.09765625 C-37.93881332 175.0962413 -38.9362204 175.09482635 -39.96385193 175.09336853 C-43.16343124 175.08775114 -46.36294169 175.07519571 -49.5625 175.0625 C-51.72591045 175.05748724 -53.88932199 175.05292395 -56.05273438 175.04882812 C-61.36851325 175.03777607 -66.68425171 175.02102104 -72 175 C-71.32684168 170.75284644 -69.9195956 167.10567001 -68.25390625 163.1484375 C-67.9717778 162.47443405 -67.68964935 161.8004306 -67.39897156 161.10600281 C-66.4578243 158.8604844 -65.51014421 156.61778346 -64.5625 154.375 C-63.88790043 152.76898606 -63.21375721 151.16278037 -62.54003906 149.55639648 C-61.10393998 146.13382985 -59.66535293 142.71232354 -58.22509766 139.29150391 C-56.03069313 134.07686436 -53.84794466 128.85740372 -51.66796875 123.63671875 C-45.57147784 109.04114245 -39.46594831 94.44953936 -33.30078125 79.8828125 C-32.91023056 78.95999481 -32.51967987 78.03717712 -32.11729431 77.08639526 C-31.32674874 75.21858419 -30.53619596 73.35077617 -29.74563599 71.48297119 C-29.35520111 70.5604657 -28.96476624 69.63796021 -28.5625 68.6875 C-27.98204422 67.31606842 -27.98204422 67.31606842 -27.38986206 65.91693115 C-18.11951485 44.00265441 -9.05150003 22.0053825 0 0 Z M20 47 C17.48719142 53.79367787 14.97917109 60.58910971 12.47436523 67.38574219 C11.62291049 69.69441061 10.7703878 72.00268547 9.91674805 74.31054688 C8.6851288 77.64087982 7.4574437 80.97264111 6.23046875 84.3046875 C5.85222458 85.32488983 5.47398041 86.34509216 5.08427429 87.39620972 C4.54405388 88.86660202 4.54405388 88.86660202 3.99291992 90.36669922 C3.67981369 91.21497284 3.36670746 92.06324646 3.04411316 92.93722534 C1.573334 97.25157106 0.30977599 101.63408003 -1 106 C13.19 106 27.38 106 42 106 C39.69705454 98.23188246 39.69705454 98.23188246 37.13061523 90.58203125 C36.79694443 89.6482666 36.46327362 88.71450195 36.11949158 87.75244141 C35.76939529 86.78226074 35.41929901 85.81208008 35.05859375 84.8125 C34.69024918 83.78817871 34.3219046 82.76385742 33.94239807 81.70849609 C33.16981697 79.56344885 32.39578601 77.41892329 31.62036133 75.27490234 C30.43157695 71.98360129 29.25178553 68.68916205 28.07226562 65.39453125 C27.31825432 63.30449045 26.56371599 61.21463968 25.80859375 59.125 C25.45647324 58.13862549 25.10435272 57.15225098 24.74156189 56.13598633 C24.41104324 55.22743896 24.0805246 54.3188916 23.73999023 53.3828125 C23.4514769 52.58246582 23.16296356 51.78211914 22.8657074 50.95751953 C22.06158498 48.82112335 22.06158498 48.82112335 20 47 Z " fill="#000000" transform="translate(1189,1754)"/>
<path d="M0 0 C6.75562132 -0.48538288 13.50672203 -0.8157592 20.27587891 -1.04370117 C22.57218202 -1.13874843 24.86734971 -1.26806503 27.15966797 -1.43334961 C45.69385506 -2.73533796 45.69385506 -2.73533796 51.20842171 1.82713699 C55.01584783 6.34256202 57.6040477 11.35931522 59.97637939 16.74079227 C61.33302497 19.73501117 62.99425912 22.38998925 64.77734375 25.1484375 C65.83218235 26.88974553 66.88558887 28.63192195 67.9375 30.375 C72.38313167 37.70862931 76.85392227 45.02512626 81.375 52.3125 C86.24172187 60.15896937 91.09637004 68.01270933 95.9375 75.875 C96.53288574 76.84091064 97.12827148 77.80682129 97.74169922 78.80200195 C104.53704663 89.84242174 111.25907965 100.92563086 118 112 C118 75.04 118 38.08 118 0 C131.53 0 145.06 0 159 0 C159 57.75 159 115.5 159 175 C143.16 175 127.32 175 111 175 C105.06 165.1 105.06 165.1 99 155 C96.92654044 151.61772774 94.84973933 148.24056846 92.75 144.875 C91.65722055 143.11609135 90.56478945 141.35696624 89.47265625 139.59765625 C88.91078613 138.69289551 88.34891602 137.78813477 87.77001953 136.85595703 C84.56360209 131.68234721 81.37611576 126.49709336 78.1875 121.3125 C77.18493164 119.68308472 77.18493164 119.68308472 76.16210938 118.02075195 C72.72091159 112.42715904 69.28259511 106.83181361 65.84765625 101.234375 C64.48191229 99.01032979 63.11602863 96.78637037 61.75 94.5625 C60.76229614 92.95338745 60.76229614 92.95338745 59.75463867 91.31176758 C56.64587337 86.25764945 53.51664427 81.21909548 50.328125 76.21484375 C49.76383789 75.32917725 49.19955078 74.44351074 48.61816406 73.53100586 C47.56716269 71.88711159 46.51205161 70.24583497 45.45214844 68.60766602 C44.99356445 67.89151123 44.53498047 67.17535645 44.0625 66.4375 C43.66160156 65.81746094 43.26070312 65.19742187 42.84765625 64.55859375 C42 63 42 63 42 61 C41.34 61 40.68 61 40 61 C40.16265854 61.93602554 40.32531708 62.87205109 40.49290466 63.83644104 C41.1907589 68.75846192 41.1318178 73.65439682 41.11352539 78.61694336 C41.11367142 79.6615976 41.11381744 80.70625183 41.1139679 81.78256226 C41.11327401 85.21834424 41.10550616 88.65407129 41.09765625 92.08984375 C41.09579021 94.47880524 41.09436718 96.86776712 41.09336853 99.25672913 C41.089558 105.53175928 41.07974023 111.80676613 41.06866455 118.08178711 C41.05841893 124.49006841 41.05386416 130.89835349 41.04882812 137.30664062 C41.03811663 149.87110367 41.02125117 162.43555059 41 175 C35.32169922 175.02464705 29.64342931 175.04283462 23.96508789 175.05493164 C22.03181415 175.05997256 20.09854424 175.06680519 18.1652832 175.07543945 C15.39273128 175.08751565 12.62022959 175.09323057 9.84765625 175.09765625 C8.54297142 175.10539818 8.54297142 175.10539818 7.21192932 175.11329651 C5.14094186 175.11349185 3.07005676 175.06208168 1 175 C0 174 0 174 -0.12304783 171.15952969 C-0.12212604 169.87731565 -0.12120424 168.5951016 -0.12025452 167.27403259 C-0.12153615 166.20694379 -0.12153615 166.20694379 -0.12284368 165.11829764 C-0.12450057 162.71677952 -0.11897374 160.31533012 -0.11352539 157.91381836 C-0.11324354 156.19940696 -0.11340122 154.48499544 -0.1139679 152.77058411 C-0.11425594 148.10136027 -0.10835804 143.43216188 -0.10139394 138.76294398 C-0.09516161 133.88888473 -0.0945567 129.01482495 -0.09336853 124.14076233 C-0.09025486 114.9043057 -0.08204098 105.66786085 -0.07201904 96.43140942 C-0.06085902 85.91889135 -0.05534774 75.40637272 -0.05032361 64.89385021 C-0.0398584 43.26256022 -0.02225826 21.63128085 0 0 Z " fill="#000000" transform="translate(1331,1754)"/>
<path d="M0 0 C46.53 0 93.06 0 141 0 C141 11.88 141 23.76 141 36 C124.83 36 108.66 36 92 36 C92.00523682 40.17519287 92.01047363 44.35038574 92.01586914 48.65209961 C92.03240109 62.41042569 92.04352046 76.1687516 92.05181217 89.92708492 C92.0569753 98.27292829 92.06401831 106.61876227 92.07543945 114.96459961 C92.08538579 122.2361877 92.09185331 129.50776899 92.09408849 136.77936369 C92.09539569 140.63199521 92.09848208 144.48460728 92.10573006 148.33723259 C92.11248948 151.95932672 92.11461712 155.58139328 92.11310768 159.20349312 C92.11351637 161.17497228 92.11891197 163.14644841 92.12442017 165.11791992 C92.1230455 166.28044785 92.12167084 167.44297577 92.12025452 168.64073181 C92.12117631 169.65746947 92.1220981 170.67420713 92.12304783 171.72175503 C92 174 92 174 91 175 C87.98191937 175.101137 84.98719487 175.13968909 81.96875 175.1328125 C81.06249878 175.13376923 80.15624756 175.13472595 79.22253418 175.13571167 C77.30248953 175.13639353 75.38244259 175.13453882 73.46240234 175.13037109 C70.51264296 175.12502292 67.56303586 175.13031588 64.61328125 175.13671875 C62.75260383 175.13605797 60.8919265 175.13477681 59.03125 175.1328125 C57.69846008 175.13584885 57.69846008 175.13584885 56.33874512 175.13894653 C50.11494988 175.11494988 50.11494988 175.11494988 49 174 C48.90363162 172.21572813 48.87812547 170.42760347 48.87974548 168.64073181 C48.87837082 167.47820389 48.87699615 166.31567596 48.87557983 165.11791992 C48.88097275 163.18770996 48.88097275 163.18770996 48.88647461 161.21850586 C48.88675648 159.85876976 48.88659875 158.4990335 48.8860321 157.13929749 C48.88574413 153.43698222 48.89164088 149.73469908 48.89860606 146.03239131 C48.90483957 142.16731219 48.9054434 138.30223242 48.90663147 134.43714905 C48.90974479 127.11315318 48.9179582 119.78917216 48.92798096 112.46518284 C48.93914206 104.12916552 48.94465254 95.79314751 48.94967639 87.45712459 C48.96014081 70.30473965 48.9784863 53.15237518 49 36 C32.83 36 16.66 36 0 36 C0 24.12 0 12.24 0 0 Z " fill="#000000" transform="translate(1523,1754)"/>
<path d="M0 0 C38.61 0 77.22 0 117 0 C117 11.55 117 23.1 117 35 C91.92 35.33 66.84 35.66 41 36 C40.67 46.56 40.34 57.12 40 68 C64.09 68 88.18 68 113 68 C113 79.22 113 90.44 113 102 C77.36 102.495 77.36 102.495 41 103 C41 114.55 41 126.1 41 138 C67.73 138.33 94.46 138.66 122 139 C122 150.55 122 162.1 122 174 C121 175 121 175 118.98725033 175.12304783 C118.09587651 175.12212604 117.2045027 175.12120424 116.28611755 175.12025452 C114.76008109 175.12232076 114.76008109 175.12232076 113.2032156 175.12442875 C112.07324185 175.12083064 110.94326811 175.11723253 109.77905273 175.11352539 C108.57955773 175.11364593 107.38006273 175.11376646 106.1442194 175.11389065 C102.240659 175.11314105 98.33714567 175.10551066 94.43359375 175.09765625 C92.03194197 175.09618698 89.63028986 175.09516618 87.2286377 175.09460449 C78.2982536 175.0893499 69.36787634 175.07538885 60.4375 175.0625 C30.5209375 175.0315625 30.5209375 175.0315625 0 175 C0 117.25 0 59.5 0 0 Z " fill="#000000" transform="translate(1697,1754)"/>
<path d="M0 0 C16.17 0 32.34 0 49 0 C61.02490186 14.19218069 61.02490186 14.19218069 63.13671875 20.47265625 C65.54435655 27.11317491 68.66178718 32.75212771 72.5625 38.625 C73.61249949 40.3037221 74.65671475 41.98607503 75.6953125 43.671875 C76.22543945 44.52587891 76.75556641 45.37988281 77.30175781 46.25976562 C80.5237285 51.45864415 83.73105582 56.66653558 86.9375 61.875 C87.6092627 62.96603027 88.28102539 64.05706055 88.97314453 65.18115234 C92.26710593 70.53671619 95.5505425 75.89831355 98.8125 81.2734375 C99.42359619 82.28035645 100.03469238 83.28727539 100.66430664 84.32470703 C101.79289467 86.18657427 102.91986531 88.04942359 104.04467773 89.91357422 C108.56372731 97.37277049 113.27762523 104.65408368 118 112 C118 75.04 118 38.08 118 0 C131.53 0 145.06 0 159 0 C159 57.75 159 115.5 159 175 C143.16 175 127.32 175 111 175 C97.36091053 153.40477501 97.36091053 153.40477501 92.0625 144.625 C87.09441288 136.42951463 82.08438057 128.26203561 77.03100586 120.11889648 C72.1116558 112.1895399 67.22321736 104.24134482 62.34619141 96.28588867 C55.29933078 84.81344984 48.13667797 73.41868474 41 62 C41 99.29 41 136.58 41 175 C27.47 175 13.94 175 0 175 C0 117.25 0 59.5 0 0 Z " fill="#000000" transform="translate(1860,1754)"/>
</svg>
