<?xml version="1.0" standalone="no"?>
<!DOCTYPE svg PUBLIC "-//W3C//DTD SVG 20010904//EN"
 "http://www.w3.org/TR/2001/REC-SVG-20010904/DTD/svg10.dtd">
<svg version="1.0" xmlns="http://www.w3.org/2000/svg"
 width="300.000000pt" height="300.000000pt" viewBox="0 0 300.000000 300.000000"
 preserveAspectRatio="xMidYMid meet">

<g transform="translate(0.000000,300.000000) scale(0.100000,-0.100000)"
fill="#000000" stroke="none">
<path d="M1390 2994 c-253 -29 -444 -88 -632 -195 -369 -211 -638 -580 -722
-991 -39 -193 -42 -352 -11 -553 86 -546 483 -1006 1017 -1179 301 -97 623
-96 929 4 368 121 686 396 863 749 178 354 208 769 82 1144 -176 527 -628 914
-1170 1002 -94 15 -295 26 -356 19z m100 -640 c156 -46 259 -141 302 -276 22
-73 24 -219 4 -296 -30 -110 -94 -185 -396 -460 l-45 -41 178 -1 177 0 0 68 0
67 146 130 c80 72 150 132 155 133 5 2 9 -78 9 -197 l0 -201 94 0 c89 0 94 -1
100 -23 8 -29 8 -211 0 -231 -5 -13 -24 -16 -100 -16 l-93 0 -3 -153 -3 -152
-72 -9 c-41 -5 -105 -5 -150 0 l-78 9 -3 152 -3 153 -413 0 -414 0 -6 31 c-3
17 -6 69 -6 114 l0 82 243 215 c350 311 370 335 370 453 1 131 -90 202 -225
177 -70 -13 -127 -50 -201 -133 l-56 -61 -46 27 c-26 15 -77 55 -113 90 l-66
62 43 56 c105 137 234 220 384 247 70 12 220 4 287 -16z"/>
</g>
</svg>
