<svg xmlns="http://www.w3.org/2000/svg" viewBox="0 0 512 512" width="512" height="512" role="img" aria-label="Red portrait logo mark">
  <!-- Vectorized from the uploaded red/black image. Circular text reconstructed from the Finder preview screenshot. -->
  <g fill="#ff0000" transform="translate(93.778 46.000) scale(2.222222)">
    <path fill-rule="evenodd" d="M117.5,104.88 L116.25,104.88 L114.88,103.5 L114.88,98.25 L115.88,97.25 L114.5,95.88 L113.25,96.88 L111.88,95.5 L111.88,94.25 L110.88,93.5 L111.88,92.5 L111.88,89.25 L113.88,87.5 L113.88,84.25 L111.88,83.5 L111.88,81.25 L110.88,80.25 L111.88,79.5 L111.88,77.25 L113.25,75.88 L117.5,75.88 L117.88,77.5 L118.25,77.88 L118.88,77.5 L118.88,72.25 L117.88,71.5 L117.88,67.25 L116.5,65.88 L115.25,65.88 L113.88,67.25 L113.88,69.5 L112.88,70.25 L112.88,72.5 L111.5,73.88 L110.25,73.88 L108.5,75.88 L104.25,75.88 L103.88,75.5 L103.88,71.25 L102.88,70.5 L102.88,68.25 L101.88,67.5 L101.88,64.25 L102.88,63.5 L102.88,60.25 L101.88,59.25 L102.88,58.5 L103.25,56.88 L105.5,56.88 L105.88,56.5 L105.88,54.25 L104.88,53.5 L104.88,51.25 L99.88,46.5 L99.88,45.25 L98.88,44.5 L98.88,43.25 L96.88,41.5 L96.88,40.25 L95.88,39.5 L95.88,38.25 L93.88,36.5 L93.88,32.25 L92.25,31.88 L89.88,29.5 L89.88,28.25 L87.88,26.5 L87.88,24.25 L86.5,22.88 L85.25,22.88 L82.5,19.88 L81.25,19.88 L77.88,16.5 L77.88,15.25 L76.5,13.88 L74.25,13.88 L73.5,14.88 L67.25,14.88 L66.5,13.88 L63.25,13.88 L62.5,14.88 L60.25,14.88 L58.5,16.88 L52.25,16.88 L51.5,17.88 L49.25,17.88 L46.5,20.88 L45.25,20.88 L44.5,21.88 L43.25,21.88 L41.5,23.88 L40.25,23.88 L39.5,24.88 L38.25,24.88 L37.5,25.88 L34.25,25.88 L33.88,25.5 L33.88,22.25 L36.25,19.88 L37.5,19.88 L38.25,18.88 L39.5,18.88 L45.25,12.88 L46.5,12.88 L47.25,11.88 L48.5,11.88 L50.25,9.88 L51.5,9.88 L52.25,8.88 L54.5,8.88 L55.25,7.88 L57.5,7.88 L58.25,6.88 L60.5,6.88 L61.25,5.88 L72.5,5.88 L73.25,6.88 L75.5,6.88 L76.25,7.88 L79.5,7.88 L80.25,8.88 L81.5,8.88 L82.25,9.88 L84.5,9.88 L85.25,10.88 L86.5,10.88 L87.25,11.88 L88.5,11.88 L91.25,14.88 L92.5,14.88 L94.25,16.88 L95.5,16.88 L96.25,17.88 L97.5,17.88 L98.25,18.88 L99.5,18.88 L100.25,19.88 L101.5,19.88 L107.88,26.25 L107.88,27.5 L108.88,28.25 L108.88,29.5 L110.88,31.25 L110.88,32.5 L111.88,33.25 L111.88,38.5 L112.88,39.25 L112.88,40.5 L113.88,41.25 L113.88,45.5 L114.88,46.25 L114.88,48.5 L115.88,49.25 L115.88,51.5 L116.88,52.25 L116.88,54.5 L117.88,55.25 L117.88,59.5 L119.25,60.88 L120.5,60.88 L121.25,61.88 L122.5,61.88 L123.88,63.25 L123.88,66.5 L124.88,67.25 L124.88,71.5 L125.88,72.25 L125.88,78.5 L124.88,79.25 L124.88,84.5 L123.88,85.25 L124.88,86.25 L123.88,87.25 L123.88,92.5 L122.88,93.25 L122.88,94.5 L121.88,95.25 L121.88,98.5 L120.88,99.25 L120.88,100.5 L119.88,101.25 L119.88,102.5 L117.5,104.88 Z M71.5,23.88 L69.88,23.5 L69.88,20.25 L70.25,19.88 L71.88,20.25 L71.88,23.5 L71.5,23.88 Z M46.5,135.88 L40.25,135.88 L39.88,134.25 L38.88,133.5 L38.88,132.25 L36.88,130.5 L36.5,128.88 L35.88,129.25 L35.88,131.5 L34.5,132.88 L33.25,132.88 L32.5,131.88 L31.25,131.88 L30.5,130.88 L29.25,130.88 L27.88,129.5 L27.88,127.25 L26.88,126.5 L26.88,124.25 L25.88,123.5 L25.88,112.25 L24.88,111.5 L24.88,110.25 L23.88,109.5 L23.88,104.25 L22.88,103.5 L22.88,98.25 L21.88,97.5 L21.88,96.25 L20.88,95.5 L20.88,94.25 L19.88,93.5 L19.88,92.25 L18.88,91.5 L18.88,90.25 L17.88,89.5 L17.88,87.25 L16.88,86.5 L16.88,84.25 L15.88,83.5 L15.88,70.25 L14.88,69.5 L14.88,57.25 L15.88,56.5 L15.88,48.25 L16.88,47.5 L16.88,45.25 L17.88,44.5 L17.88,41.25 L18.88,40.5 L18.88,39.25 L20.88,37.5 L20.88,36.25 L27.88,29.5 L27.88,28.25 L29.25,26.88 L31.5,26.88 L33.88,29.25 L32.88,30.25 L32.88,31.5 L33.25,31.88 L35.5,31.88 L36.88,33.25 L36.88,36.5 L35.88,37.25 L35.88,38.5 L31.88,42.25 L31.88,43.5 L29.88,45.25 L29.88,46.5 L27.5,48.88 L25.25,48.88 L24.88,47.25 L24.25,46.88 L23.88,48.5 L22.88,49.25 L22.88,50.5 L21.88,51.25 L21.88,67.5 L22.88,68.25 L22.88,69.5 L23.88,70.25 L23.88,83.5 L24.25,83.88 L24.88,83.5 L24.88,81.25 L25.88,80.5 L25.88,78.25 L29.25,74.88 L31.5,74.88 L32.25,75.88 L37.5,75.88 L38.25,76.88 L40.5,76.88 L42.25,78.88 L45.5,78.88 L46.25,79.88 L47.5,79.88 L50.25,82.88 L53.5,82.88 L53.88,83.25 L53.88,93.5 L52.88,94.25 L52.88,96.5 L53.88,97.25 L53.88,103.5 L52.88,104.25 L52.88,105.5 L51.88,106.25 L51.88,107.5 L49.88,109.25 L49.88,110.5 L51.25,111.88 L53.5,111.88 L54.25,112.88 L55.5,112.88 L56.25,113.88 L57.5,113.88 L58.25,112.88 L59.5,112.88 L62.25,109.88 L68.75,109.88 L69.5,110.88 L69.88,110.25 L68.88,109.75 L68.88,107.25 L67.88,106.5 L67.88,104.25 L69.25,102.88 L70.5,102.88 L71.25,103.88 L72.5,103.88 L74.25,105.88 L75.5,105.88 L78.25,108.88 L79.5,108.88 L80.25,109.88 L81.5,109.88 L87.25,115.88 L88.5,115.88 L91.62,119 L91.88,120.5 L92.88,121.25 L92.88,125.5 L92.5,125.88 L88.25,125.88 L87.88,127.5 L86.5,128.88 L80.25,128.88 L79.5,129.88 L77.25,129.88 L76.5,130.88 L72.25,130.88 L71.5,131.88 L67.25,131.88 L66.5,132.88 L60.25,132.88 L59.5,133.88 L49.25,133.88 L48.5,134.88 L47.25,134.88 L46.5,135.88 Z M29.62,36.75 L29.88,36.25 L29.25,35.88 L28.88,36.5 L29.62,36.75 Z M25.62,45.75 L25.88,44.25 L25.25,43.88 L23.88,45.5 L24.25,45.88 L25.62,45.75 Z M27.5,55.88 L26.25,55.88 L25.88,54.25 L24.88,53.5 L24.88,52.25 L26.25,50.88 L28.5,50.88 L29.88,52.25 L29.88,53.5 L27.5,55.88 Z M81.5,97.88 L78.25,97.88 L76.5,95.88 L71.25,95.88 L70.5,94.88 L69.25,94.88 L67.88,93.5 L67.88,92.25 L66.88,91.5 L66.88,89.25 L63.88,88.5 L63.88,87.25 L62.88,86.5 L62.88,85.25 L63.88,84.5 L63.88,83.25 L65.25,81.88 L67.5,81.88 L68.88,80.5 L68.5,79.88 L67.25,79.88 L66.5,80.88 L62.25,80.88 L61.5,81.88 L58.25,81.88 L56.88,80.5 L56.88,78.25 L58.25,76.88 L61.5,76.88 L62.25,74.88 L63.5,74.88 L64.25,73.88 L65.5,73.88 L66.25,72.88 L67.5,72.88 L68.25,71.88 L69.5,71.88 L70.25,70.88 L72.5,70.88 L75.25,67.88 L76.5,67.88 L77.25,66.88 L81.5,66.88 L82.25,67.88 L83.5,67.88 L84.25,68.88 L85.5,68.88 L86.25,69.88 L87.5,69.88 L88.88,71.25 L88.88,73.5 L87.75,74.88 L80.25,74.88 L79.5,75.88 L78.25,75.88 L77.5,76.88 L76.25,76.88 L75.5,77.88 L73.25,77.88 L71.88,79.25 L72.25,79.88 L74.5,79.88 L75.25,78.88 L78.5,78.88 L79.25,79.88 L87.5,79.88 L87.88,78.25 L86.88,77.5 L86.88,76.25 L87.88,75.5 L87.88,75 L89.5,74.88 L90.88,76.25 L90.88,79.5 L89.88,80.25 L89.88,83.5 L87.5,85.88 L82.25,85.88 L80.5,87.88 L78.25,87.88 L77.88,88.25 L78,89.62 L79.5,89.88 L81.88,92.25 L81.88,97.5 L81.5,97.88 Z M40.62,85.75 L40.88,85.25 L39.5,83.88 L37.25,83.88 L36.5,84.88 L34.88,85.25 L35.25,85.88 L40.62,85.75 Z M54.62,127.75 L55.25,126.88 L60.5,126.88 L61.25,125.88 L67.5,125.88 L68.25,124.88 L73.5,124.88 L74.25,123.88 L79.5,123.88 L80.25,122.88 L81.5,122.88 L82.25,121.88 L85.75,121.88 L86.25,122.88 L86.88,122.25 L86,121.88 L85.88,121.25 L82.5,117.88 L81.25,117.88 L79.5,115.88 L78.25,115.88 L76.5,113.88 L75.25,113.88 L73.5,111.88 L72,111.88 L71.5,110.88 L70.88,111.5 L71.88,112 L71.88,113.5 L68.5,116.88 L65.25,116.88 L62.5,119.88 L50.25,119.88 L47.25,116.88 L45.88,118.25 L45.88,119.5 L44.88,120.25 L44.88,121.5 L43.5,122.88 L42,122.88 L41.5,121.88 L40,121.88 L39.88,114.25 L42.88,111.5 L42.88,108.25 L44.88,106.5 L44.88,105.25 L46.88,103.5 L46.88,102.25 L47.88,101.5 L47.88,100.25 L47.5,99.88 L37.25,99.88 L35.88,98.5 L36.88,97.5 L36.88,96.25 L38.5,95.88 L39.25,94.88 L40.5,94.88 L41.25,93.88 L42.5,93.88 L43.88,92.25 L43.5,91.88 L41.25,91.88 L40.5,92.88 L30.25,92.88 L29.88,91.25 L28.88,90.5 L28.88,88.25 L30.5,87.88 L31.25,86.88 L32.5,86.88 L32.88,86.25 L32.5,85.88 L30.25,85.88 L29.5,86.88 L26.25,86.88 L24.25,84.88 L23.88,85.25 L23.88,88.5 L25.88,90.25 L25.88,91.5 L29.25,94.88 L30.5,94.88 L32.88,97.25 L32.88,100.5 L31.88,101.25 L31.88,103.5 L33.5,103.88 L34.25,102.88 L35.5,102.88 L36.88,104.25 L36.88,106.5 L33.88,109.25 L33.88,119.5 L34.88,120.25 L34.88,123.5 L35.88,124.25 L35.88,126.5 L36.25,126.88 L36.88,126.5 L36.88,125.25 L37.88,124.5 L37.88,123.25 L39.75,121.88 L40.25,122.88 L41.88,123 L41.88,126.5 L43.25,127.88 L54.62,127.75 Z M73.62,87.75 L73.88,86.25 L73.25,85.88 L71.88,87.5 L72.25,87.88 L73.62,87.75 Z M111.5,107.88 L109.25,107.88 L108.88,107.5 L108.88,105.25 L109.25,104.88 L111.5,104.88 L111.88,105.25 L111.88,107.5 L111.5,107.88 Z M95.5,178.88 L93.88,177.5 L93.88,172.25 L95.88,170.5 L95.88,169.25 L97.25,167.88 L98.5,167.88 L100.88,165.5 L100.88,164.25 L102.88,162.5 L102.88,161.25 L104.88,159.5 L104.88,158.25 L105.88,157.5 L105.88,156.25 L106.88,155.5 L106.88,154.25 L107.88,153.5 L107.88,151.25 L108.88,150.5 L108.88,141.25 L107.88,140.5 L107.88,137.25 L108.88,136.5 L108.88,120.25 L107.88,119.5 L107.88,117.25 L108.88,116.5 L108.88,115.25 L110.25,113.88 L114.5,113.88 L114.88,115.5 L117.88,118.25 L117.88,119.5 L118.88,120.25 L118.88,121.5 L119.88,122.25 L119.88,123.5 L121.88,125.25 L121.88,126.5 L122.88,127.25 L122.88,128.5 L123.88,129.25 L123.88,131.5 L124.88,132.25 L124.88,136.5 L123.88,137.25 L123.88,140.5 L124.88,141.25 L124.88,143.5 L125.25,143.88 L127.5,143.88 L127.88,143.5 L127.88,135.25 L128.25,134.88 L134.5,134.88 L135.25,135.88 L136.5,135.88 L138.25,137.88 L139.88,138.25 L139.88,140.5 L137.88,142.25 L137.88,143.5 L135.88,145.25 L135.88,146.5 L132.88,149.25 L132.88,150.5 L128.88,154.25 L128.88,155.5 L118.5,165.88 L117.25,165.88 L113.5,169.88 L112.25,169.88 L110.5,171.88 L109.25,171.88 L108.5,172.88 L107.25,172.88 L106.5,173.88 L105.25,173.88 L103.5,175.88 L100.25,175.88 L98.5,177.88 L96.25,177.88 L95.5,178.88 Z M67.5,182.88 L63.25,182.88 L62.5,181.88 L57.25,181.88 L56.5,180.88 L53.25,180.88 L52.5,179.88 L50.25,179.88 L49.5,178.88 L47.25,178.88 L46.5,177.88 L45.25,177.88 L44.5,176.88 L43.25,176.88 L42.5,175.88 L41.25,175.88 L40.5,174.88 L39.25,174.88 L38.5,173.88 L37.25,173.88 L36.5,172.88 L35.25,172.88 L33.5,170.88 L32.25,170.88 L29.5,167.88 L28.25,167.88 L25.5,164.88 L24.25,164.88 L14.88,155.5 L14.88,154.25 L10.88,150.5 L10.88,149.25 L7.88,146.5 L7.88,145.25 L6.88,144.5 L6.88,143.25 L5.88,142.5 L5.88,140.25 L7.25,138.88 L9.5,138.88 L10.25,137.88 L12.5,137.88 L14.25,135.88 L17.5,135.88 L18.25,134.88 L19.5,134.88 L20.25,133.88 L23.5,133.88 L24.25,132.88 L29.5,132.88 L32.25,135.88 L33.5,135.88 L35.88,138.25 L35.88,139.5 L41.88,145.25 L42.25,146.88 L44.5,146.88 L45.25,147.88 L50.5,147.88 L51.88,149.25 L51.88,150.5 L55.25,153.88 L57.5,153.88 L58.25,154.88 L63.5,154.88 L64.25,155.88 L70.5,155.88 L71.25,154.88 L76.5,154.88 L77.25,155.88 L79.5,155.88 L79.88,156.25 L79.88,159.5 L79.5,159.88 L78.25,159.88 L77.5,160.88 L75.25,160.88 L74.5,161.88 L71.25,161.88 L70.88,163.5 L71.25,163.88 L75.5,163.88 L76.25,164.88 L77.5,164.88 L80.25,167.88 L86.5,167.88 L87.88,169.25 L87.88,171.5 L85.88,173.25 L85.88,175.5 L85.5,175.88 L80.25,175.88 L79.5,177.88 L75.25,177.88 L74.5,176.88 L72.25,176.88 L70.5,174.88 L69.25,174.88 L68.5,173.88 L67.25,173.88 L66.5,172.88 L61.25,172.88 L59.88,174.25 L60.88,175.25 L61.25,176.88 L62.5,176.88 L63.25,177.88 L65.5,177.88 L66.25,178.88 L67.5,178.88 L68.88,180.25 L68.88,181.5 L67.5,182.88 Z M75.5,136.88 L72.25,136.88 L71.88,136.5 L71.88,134.25 L72.25,133.88 L75.5,133.88 L75.88,134.25 L75.88,136.5 L75.5,136.88 Z M66.5,143.88 L64.25,143.88 L63.5,142.88 L62.25,142.88 L61.5,143.88 L58.25,143.88 L57.5,142.88 L55.25,142.88 L52.88,140.5 L52.88,136.25 L53.25,135.88 L60.5,135.88 L61.25,136.88 L67.5,136.88 L69.88,139.25 L69.88,141.5 L68.5,142.88 L67.25,142.88 L66.5,143.88 Z M85.5,156.88 L82.25,156.88 L80.88,155.5 L80.88,154.25 L81.88,153.5 L82.25,151.88 L83.88,151.5 L83.88,150.25 L85.88,148.5 L85.88,147.25 L88.25,144.88 L89.5,144.88 L90.25,143.88 L96.5,143.88 L97.88,145.25 L97.88,147.5 L96.5,148.88 L95.25,148.88 L94.5,149.88 L92.25,149.88 L91.5,150.88 L90.25,150.88 L89.5,151.88 L88.25,151.88 L87.88,152.25 L87.88,154.5 L85.5,156.88 Z M57.5,152.88 L56.25,152.88 L53.88,150.5 L53.88,148.25 L55.25,146.88 L57.5,146.88 L58.88,148.25 L58.88,149.5 L59.88,150.25 L57.5,152.88 Z M90.5,162.88 L87.25,162.88 L85.88,161.5 L85.88,158.25 L88.25,155.88 L89.25,156.88 L91.5,156.88 L91.88,157.25 L91.88,161.5 L90.5,162.88 Z"/>
  </g>
</svg>
